<?xml version="1.0" standalone="no"?>
<!DOCTYPE svg PUBLIC "-//W3C//DTD SVG 20010904//EN"
 "http://www.w3.org/TR/2001/REC-SVG-20010904/DTD/svg10.dtd">
<svg version="1.0" xmlns="http://www.w3.org/2000/svg"
 width="520.000000pt" height="520.000000pt" viewBox="0 0 520.000000 520.000000"
 preserveAspectRatio="xMidYMid meet">
<metadata>
Created by potrace 1.11, written by Peter Selinger 2001-2013
</metadata>
<g transform="translate(0.000000,520.000000) scale(0.100000,-0.100000)"
fill="#000000" stroke="none">
<path d="M2557 4779 c-10 -6 -36 -9 -57 -7 -21 2 -37 0 -34 -3 2 -4 -12 -9
-31 -12 -49 -8 -153 -60 -206 -104 -94 -77 -75 -42 -586 -1083 -284 -577 -363
-740 -364 -747 -1 -5 -10 -20 -20 -35 -10 -14 -19 -29 -19 -32 0 -7 -188 -390
-689 -1409 -81 -164 -127 -269 -135 -310 -64 -311 186 -606 514 -607 129 0
231 37 360 129 105 76 267 174 385 234 104 52 269 124 304 132 9 2 48 15 88
29 84 29 276 71 378 82 88 10 340 11 423 1 133 -15 372 -75 467 -116 230 -101
414 -215 532 -330 107 -104 227 -154 377 -156 84 -2 111 2 176 25 142 48 240
134 305 265 79 158 69 331 -28 492 -19 32 -190 369 -380 748 -190 380 -473
945 -630 1258 -157 312 -282 567 -279 567 4 0 3 4 -3 8 -19 14 -57 101 -49
113 4 7 3 10 -4 5 -9 -5 -29 32 -23 42 1 1 -5 10 -14 18 -10 10 -13 25 -10 38
5 17 4 18 -4 6 -7 -10 -11 -11 -11 -2 0 20 -3 27 -15 37 -13 12 -39 69 -27 61
4 -2 8 4 8 14 0 13 -4 16 -12 10 -15 -13 -26 0 -13 16 7 8 6 14 -2 20 -8 4 -9
3 -5 -4 4 -7 4 -12 -1 -11 -4 0 -34 52 -65 115 -39 79 -53 116 -45 120 7 4 9
4 5 -1 -4 -4 1 -20 12 -35 11 -15 17 -29 14 -32 -2 -3 2 -11 10 -17 21 -18 15
8 -10 44 -12 17 -19 36 -17 43 3 6 0 12 -5 12 -5 0 -15 14 -22 30 -7 17 -19
30 -26 30 -10 0 -13 8 -10 24 3 15 -2 30 -12 38 -12 10 -14 10 -8 1 4 -8 2
-13 -4 -13 -6 0 -10 8 -9 18 3 23 -10 52 -24 52 -5 0 -2 -9 8 -20 10 -11 14
-20 9 -20 -5 0 -22 17 -39 38 -16 20 -21 31 -12 23 10 -8 20 -11 24 -7 3 3 1
6 -6 6 -7 0 -9 5 -5 12 4 6 3 8 -2 5 -6 -3 -24 1 -42 10 -26 12 -31 20 -27 37
5 15 4 17 -3 7 -8 -10 -14 -11 -28 -1 -17 10 -17 11 -1 6 11 -4 16 -2 12 5 -4
6 -13 8 -20 5 -7 -2 -39 8 -72 23 -32 16 -83 34 -113 41 -30 7 -61 18 -69 24
-11 8 -13 8 -7 -1 5 -9 -1 -13 -21 -13 -22 0 -25 2 -13 10 20 13 0 12 -23 -1z
m500 -274 c0 -8 -4 -12 -9 -9 -5 3 -6 10 -3 15 9 13 12 11 12 -6z m38 -75 c9
-16 11 -30 6 -30 -5 0 -11 8 -15 18 -3 9 -9 23 -12 30 -12 26 6 10 21 -18z
m-475 -1352 c0 -4 79 -168 176 -365 97 -197 213 -433 258 -526 l82 -167 -30 5
c-155 25 -238 30 -461 30 -186 0 -329 -8 -390 -20 -11 -3 -36 -7 -55 -9 -19
-3 -59 -10 -89 -16 -72 -13 -72 -13 -62 13 5 12 124 255 265 541 141 285 256
522 256 525 0 4 5 12 12 19 9 9 14 7 24 -6 8 -9 14 -20 14 -24z"/>
<path d="M3170 4280 c0 -5 5 -10 11 -10 5 0 7 5 4 10 -3 6 -8 10 -11 10 -2 0
-4 -4 -4 -10z"/>
<path d="M3190 4251 c0 -6 4 -13 10 -16 6 -3 7 1 4 9 -7 18 -14 21 -14 7z"/>
<path d="M3206 4205 c4 -8 11 -15 16 -15 6 0 5 6 -2 15 -7 8 -14 15 -16 15 -2
0 -1 -7 2 -15z"/>
</g>
</svg>
