<?xml version="1.0" encoding="UTF-8"?>
<svg width="24px" height="20px" viewBox="0 0 24 20" version="1.1" xmlns="http://www.w3.org/2000/svg" xmlns:xlink="http://www.w3.org/1999/xlink">
    <title>ic-development</title>
    <g id="Design" stroke="none" stroke-width="1" fill="none" fill-rule="evenodd">
        <g id="Desktop---1440" transform="translate(-768.000000, -3184.000000)" fill="#7270F9" fill-rule="nonzero">
            <g id="Why-Client-Choose-Us" transform="translate(170.000000, 3013.000000)">
                <g id="Group-4" transform="translate(560.000000, 131.000000)">
                    <g id="ic-development" transform="translate(38.000000, 40.000000)">
                        <path d="M1.84615385,0 C0.826153846,0 0,0.813636364 0,1.81818182 L0,5.45454545 L0,20 L24,20 L24,3.63636364 L24,1.81818182 C24,0.813636364 23.1738462,0 22.1538462,0 L1.84615385,0 Z M1.84615385,5.45454545 L22.1538462,5.45454545 L22.1538462,18.1818182 L1.84615385,18.1818182 L1.84615385,5.45454545 Z M12.9537258,7.26029818 C12.5147664,7.24724657 12.1272322,7.54054745 12.0270434,7.96164727 L10.1808895,15.2343745 C10.1009214,15.5496809 10.1978613,15.8830505 10.4351818,16.1088677 C10.6725024,16.3346849 11.0141355,16.4186301 11.3313519,16.3290721 C11.6485683,16.2395142 11.8931574,15.9900642 11.9729566,15.6747164 L13.8191105,8.40198909 C13.891302,8.13369954 13.8351059,7.84762896 13.6665199,7.62521566 C13.497934,7.40280237 13.2354258,7.26841034 12.9537258,7.26029818 Z M7.36658658,8.17116455 C7.06232581,8.17942299 6.78175186,8.33485449 6.61658658,8.58664727 L4.42968748,11.8181818 L6.61658658,15.0497164 C6.79708141,15.3256258 7.11456049,15.484309 7.44724085,15.4648959 C7.77992122,15.4454829 8.07615211,15.2509876 8.22230122,14.9560173 C8.36845034,14.6610471 8.3418271,14.3113978 8.152644,14.0411927 L6.6472356,11.8181818 L8.152644,9.59517091 C8.34949808,9.31324926 8.36897363,8.94635604 8.20304115,8.64575598 C8.03710867,8.34515593 7.71386801,8.16175415 7.36658658,8.17116455 Z M16.6045671,8.17115747 C16.2624592,8.17251152 15.9491585,8.36007251 15.7904452,8.65854779 C15.6317319,8.95702306 15.653633,9.31746624 15.847356,9.59517091 L17.3527643,11.8181818 L15.847356,14.0411927 C15.6581708,14.3113977 15.6315461,14.6610483 15.7776952,14.9560199 C15.9238443,15.2509914 16.2200763,15.4454875 16.5527579,15.4649 C16.8854395,15.4843126 17.2029192,15.3256277 17.3834132,15.0497164 L19.5703126,11.8181818 L17.3834132,8.58664727 C17.2126189,8.32652574 16.919099,8.16994485 16.6045671,8.17115747 L16.6045671,8.17115747 Z" id="Shape"></path>
                    </g>
                </g>
            </g>
        </g>
    </g>
</svg>