<?xml version="1.0" encoding="UTF-8"?>
<svg width="24px" height="24px" viewBox="0 0 24 24" version="1.1" xmlns="http://www.w3.org/2000/svg" xmlns:xlink="http://www.w3.org/1999/xlink">
    <title>ic-design</title>
    <g id="Design" stroke="none" stroke-width="1" fill="none" fill-rule="evenodd">
        <g id="Desktop---1440" transform="translate(-488.000000, -3182.000000)" fill="#29CBE4" fill-rule="nonzero">
            <g id="Why-Client-Choose-Us" transform="translate(170.000000, 3013.000000)">
                <g id="Group-8" transform="translate(280.000000, 131.000000)">
                    <g id="ic-design" transform="translate(38.000000, 38.000000)">
                        <path d="M2.18181818,0 C0.976363636,0 0,0.976363636 0,2.18181818 L0,4.36363636 L24,4.36363636 L24,2.18181818 C24,0.976363636 23.0236364,0 21.8181818,0 L2.18181818,0 Z M0,6.54545455 L0,21.8181818 C0,23.0236364 0.976363636,24 2.18181818,24 L15.2727273,24 L15.2727273,6.54545455 L0,6.54545455 Z M17.4545455,6.54545455 L17.4545455,10.9090909 L24,10.9090909 L24,6.54545455 L17.4545455,6.54545455 Z M17.4545455,13.0909091 L17.4545455,17.4545455 L24,17.4545455 L24,13.0909091 L17.4545455,13.0909091 Z M17.4545455,19.6363636 L17.4545455,24 L21.8181818,24 C23.0236364,24 24,23.0236364 24,21.8181818 L24,19.6363636 L17.4545455,19.6363636 Z" id="Shape"></path>
                    </g>
                </g>
            </g>
        </g>
    </g>
</svg>