<?xml version="1.0" encoding="UTF-8"?>
<svg width="28px" height="24px" viewBox="0 0 28 24" version="1.1" xmlns="http://www.w3.org/2000/svg" xmlns:xlink="http://www.w3.org/1999/xlink">
    <title>ic-strategy</title>
    <g id="Design" stroke="none" stroke-width="1" fill="none" fill-rule="evenodd">
        <g id="Desktop---1440" transform="translate(-208.000000, -3182.000000)" fill="#F7B500">
            <g id="Why-Client-Choose-Us" transform="translate(170.000000, 3013.000000)">
                <g id="Group-7" transform="translate(0.000000, 131.000000)">
                    <g id="ic-strategy" transform="translate(38.000000, 38.000000)">
                        <path d="M17.9794882,16.9546273 C18.328404,16.6270406 18.8937778,16.6270406 19.2426936,16.9546273 C19.5915152,17.282214 19.5915152,17.8135793 19.2425051,18.1412546 L19.2425051,18.1412546 L16.9211448,20.3218893 L19.2425051,22.502524 C19.5913266,22.8301993 19.5913266,23.3613875 19.2425051,23.6891513 C19.0680943,23.8529004 18.839569,23.9348192 18.6109495,23.9348192 C18.38233,23.9348192 18.1538047,23.8529004 17.9793939,23.6891513 L17.9793939,23.6891513 L15.6580337,21.5085166 L13.3365791,23.6892399 C13.1621684,23.8529889 12.9336431,23.9349077 12.7050236,23.9349077 C12.476404,23.9349077 12.2478788,23.8529889 12.073468,23.6892399 C11.7246465,23.3615646 11.7246465,22.8302878 12.073468,22.5026125 L12.073468,22.5026125 L14.3949226,20.3218893 L12.073468,18.1412546 C11.7246465,17.8135793 11.7246465,17.2823911 12.073468,16.9546273 C12.4223838,16.6270406 12.9877576,16.6270406 13.3366734,16.9546273 L13.3366734,16.9546273 L15.6581279,19.135262 Z M3.4242963,17.4463173 C4.87963636,17.4463173 6.06364983,18.5584649 6.06364983,19.9255793 C6.06364983,21.2926937 4.87963636,22.4049299 3.4242963,22.4049299 C1.96895623,22.4049299 0.785037037,21.2926937 0.785037037,19.9255793 C0.785037037,18.5584649 1.96905051,17.4463173 3.4242963,17.4463173 Z M14.4502626,2.33083395 C14.7738182,1.98119557 15.3379663,1.94391144 15.7102626,2.24802952 L15.7102626,2.24802952 L19.3122694,5.18940221 C19.6845657,5.49343173 19.7240673,6.02329151 19.4003232,6.37301845 L19.4003232,6.37301845 L16.2691313,9.75675277 C16.0925522,9.94760148 15.8443232,10.0453727 15.5946801,10.0453727 C15.3869899,10.0453727 15.1782626,9.97771218 15.0091313,9.8395572 C14.636835,9.53552768 14.5973333,9.0056679 14.9209832,8.65594096 L14.9209832,8.65594096 L16.7009158,6.73248708 C12.6414815,7.2178893 9.41459933,8.92472325 7.09173064,11.8229668 C5.68852525,13.5737269 4.99116498,15.3302435 4.69306397,16.2535793 C4.29314478,16.1312768 3.86692256,16.0644133 3.42420202,16.0644133 C3.23960943,16.0644133 3.05822222,16.0770775 2.87994613,16.0993063 C3.15051852,15.1618893 3.90189899,13.0354539 5.61640404,10.874214 C7.47222896,8.53478967 10.8105455,5.76708487 16.448633,5.07436162 L16.448633,5.07436162 L14.5384108,3.51445018 C14.1661145,3.21042066 14.1266128,2.68056089 14.4502626,2.33083395 Z M25.3607407,3.1802214 C26.8160808,3.1802214 28,4.29245756 28,5.65948339 C28,7.02668635 26.8159865,8.13883395 25.3607407,8.13883395 C23.9053064,8.13883395 22.7213872,7.02659779 22.7213872,5.65948339 C22.7213872,4.292369 23.9054007,3.1802214 25.3607407,3.1802214 Z M6.16754209,0.310848708 C6.51645791,-0.0167380074 7.08183165,-0.0167380074 7.43074747,0.310848708 C7.77956902,0.638523985 7.77956902,1.16980074 7.43074747,1.49747601 L7.43074747,1.49747601 L5.10938721,3.6781107 L7.4306532,5.85874539 C7.77947475,6.18642066 7.77947475,6.71769742 7.4306532,7.04537269 C7.25624242,7.20912177 7.02771717,7.29104059 6.79909764,7.29104059 C6.57047811,7.29104059 6.34195286,7.20912177 6.16754209,7.04537269 L6.16754209,7.04537269 L3.84618182,4.86464945 L1.52472727,7.04537269 C1.3503165,7.20912177 1.12179125,7.29104059 0.893171717,7.29104059 C0.664552189,7.29104059 0.436026936,7.20912177 0.261616162,7.04537269 C-0.0872053872,6.71769742 -0.0872053872,6.18642066 0.261616162,5.85874539 L0.261616162,5.85874539 L2.58288215,3.67802214 L0.261521886,1.49738745 C-0.0872996633,1.16971218 -0.0872996633,0.638435424 0.261521886,0.310760148 C0.61043771,-0.0168265683 1.17581145,-0.0168265683 1.52472727,0.310760148 L1.52472727,0.310760148 L3.84618182,2.49148339 Z" id="Combined-Shape"></path>
                    </g>
                </g>
            </g>
        </g>
    </g>
</svg>