<?xml version="1.0" encoding="UTF-8"?>
<svg width="24px" height="24px" viewBox="0 0 24 24" version="1.1" xmlns="http://www.w3.org/2000/svg" xmlns:xlink="http://www.w3.org/1999/xlink">
    <title>ic-support</title>
    <g id="Design" stroke="none" stroke-width="1" fill="none" fill-rule="evenodd">
        <g id="Desktop---1440" transform="translate(-1048.000000, -3182.000000)" fill="#0091FF">
            <g id="Why-Client-Choose-Us" transform="translate(170.000000, 3013.000000)">
                <g id="Group-5" transform="translate(840.000000, 131.000000)">
                    <g id="ic-support" transform="translate(38.000000, 38.000000)">
                        <path d="M19.3067903,-1.33226763e-15 C19.9697419,-1.33226763e-15 20.6191452,0.114609375 21.2369516,0.340640625 C21.7179194,0.516609375 21.8550968,1.1349375 21.4924839,1.4983125 L21.4924839,1.4983125 L19.4544194,3.54051562 C19.448129,3.80404687 19.4350645,4.00626562 19.4286774,4.24907812 L19.4286774,4.24907812 L19.7529194,4.57396875 L20.4928548,4.57396875 L22.5049355,2.557875 C22.8704032,2.1916875 23.4935323,2.33451562 23.6637097,2.82351562 C23.8708065,3.41864062 23.9758065,4.0426875 23.9758065,4.67845312 C23.9758065,8.40623437 21.3602419,10.1500781 17.9135806,9.1471875 L17.9135806,9.1471875 L9.15295161,17.9255625 C10.1560161,21.3871406 8.40585484,24 4.69320968,24 C4.05875806,24 3.43591935,23.8947656 2.84196774,23.68725 C2.35398387,23.5167187 2.2113871,22.8922969 2.57685484,22.5261562 L2.57685484,22.5261562 L4.5888871,20.5100156 L4.5888871,19.7685937 L4.29391935,19.473 L3.55403226,19.473 L1.51945161,21.5116875 C1.15679032,21.8751562 0.53966129,21.7375312 0.364112903,21.2556563 C0.138580645,20.6365781 0.0241935484,19.9858125 0.0241935484,19.3215469 C0.0241935484,15.5514844 2.70527419,13.8150469 6.16064516,14.8724062 L6.16064516,14.8724062 L14.8665968,6.148875 C13.8125323,2.69025 15.5410161,-1.33226763e-15 19.3067903,-1.33226763e-15 Z M17.1282581,13.1522344 C17.4021774,12.8778281 17.8462258,12.8776406 18.1202903,13.1519531 L18.1202903,13.1519531 L22.9155,17.9511562 C24.2840806,19.3216406 24.2854355,21.5526562 22.9185968,22.9245937 C21.546871,24.3014531 19.3231452,24.3008437 17.9518548,22.92675 L17.9518548,22.92675 L13.158871,18.1239844 C12.8848548,17.8493906 12.8848548,17.4042187 13.158871,17.129625 L13.158871,17.129625 L14.6488548,15.6366562 L14.0354516,15.0220312 L15.0276774,14.0278125 L15.6410806,14.6424375 Z M18.1254194,17.1317344 C17.8514032,16.8571406 17.4070645,16.8571406 17.1330484,17.1317344 C16.8590323,17.4063281 16.8590323,17.8515 17.1330484,18.1260937 L17.1330484,18.1260937 L19.8930968,20.8917187 C20.1671613,21.1663594 20.6115,21.1663125 20.8854677,20.8917187 C21.1595323,20.617125 21.1595323,20.1719531 20.8854677,19.8973594 L20.8854677,19.8973594 Z M2.29582258,0.24890625 C2.56998387,-0.02578125 3.01437097,-0.02578125 3.28804839,0.24890625 L3.28804839,0.24890625 L5.47137097,2.4365625 C5.60279032,2.56828125 5.67672581,2.74734375 5.67672581,2.9334375 L5.67672581,2.9334375 L5.67672581,4.65796875 L10.0230968,9.013125 L9.03087097,10.0073437 L4.66108065,5.62875 L2.89325806,5.62875 C2.70754839,5.62875 2.52885484,5.5546875 2.3973871,5.42296875 L2.3973871,5.42296875 L0.260854839,3.2821875 C-0.0132580645,3.00796875 -0.0132580645,2.56265625 0.260854839,2.28796875 L0.260854839,2.28796875 Z" id="Combined-Shape"></path>
                    </g>
                </g>
            </g>
        </g>
    </g>
</svg>