<?xml version="1.0" encoding="UTF-8"?>
<svg width="58px" height="72px" viewBox="0 0 58 72" version="1.1" xmlns="http://www.w3.org/2000/svg" xmlns:xlink="http://www.w3.org/1999/xlink">
    <title>ic-android</title>
    <g id="Design" stroke="none" stroke-width="1" fill="none" fill-rule="evenodd">
        <g id="Desktop---1440" transform="translate(-1161.000000, -2088.000000)" fill="#85C808" fill-rule="nonzero">
            <g id="Skillset" transform="translate(170.000000, 1801.000000)">
                <g id="Group-22" transform="translate(940.000000, 243.000000)">
                    <g id="ic-android" transform="translate(51.200000, 44.800000)">
                        <path d="M4.30769231,19.7516 C1.92984615,19.7516 -1.12265752e-13,21.7228 -1.12265752e-13,24.1516 L-1.12265752e-13,41.7516 C-1.12265752e-13,44.1804 1.92984615,46.1516 4.30769231,46.1516 C6.68553846,46.1516 8.61538462,44.1804 8.61538462,41.7516 L8.61538462,24.1516 C8.61538462,21.7206 6.68553846,19.7516 4.30769231,19.7516 Z" id="Path"></path>
                        <path d="M51.7046154,19.7516 C49.3267692,19.7516 47.3969231,21.7228 47.3969231,24.1516 L47.3969231,41.7516 C47.3969231,44.1804 49.3267692,46.1516 51.7046154,46.1516 C54.0824615,46.1516 56.0123077,44.1804 56.0123077,41.7516 L56.0123077,24.1516 C56.0123077,21.7206 54.0824615,19.7516 51.7046154,19.7516 Z" id="Path"></path>
                        <path d="M10.7753846,54.9516 L15.0830769,54.9516 L15.0830769,65.9516 C15.0830769,68.3804 17.0129231,70.3516 19.3907692,70.3516 C21.7686154,70.3516 23.6984615,68.3804 23.6984615,65.9516 L23.6984615,54.9516 L32.3138462,54.9516 L32.3138462,65.9516 C32.3138462,68.3804 34.2436923,70.3516 36.6215385,70.3516 C38.9993846,70.3516 40.9292308,68.3804 40.9292308,65.9516 L40.9292308,54.9516 L45.2369231,54.9516 L45.2369231,21.9516 L10.7753846,21.9516 L10.7753846,54.9516 Z" id="Path"></path>
                        <path d="M38.1787692,5.566 L40.3907692,1.6522 C40.6901538,1.1242 40.5135385,0.4532 39.9944615,0.1474 C39.4818462,-0.1584 38.8206154,0.022 38.5233846,0.5522 L36.3673846,4.367 C33.8904615,2.959 31.0430769,2.1516 28.0061538,2.1516 C24.9713846,2.1516 22.124,2.959 19.6449231,4.3692 L17.4867692,0.55 C17.1873846,0.0242 16.5326154,-0.1562 16.0135385,0.1474 C15.5009231,0.451 15.3243077,1.122 15.6193846,1.65 L17.8335385,5.566 C13.5624615,8.7692 10.7753846,13.9216 10.7753846,19.7516 L45.2369231,19.7516 C45.2369231,13.9216 42.4498462,8.7692 38.1787692,5.566 Z M21.5446154,13.1516 C20.3535385,13.1516 19.3907692,12.1682 19.3907692,10.9516 C19.3907692,9.735 20.3535385,8.7516 21.5446154,8.7516 C22.7356923,8.7516 23.6984615,9.735 23.6984615,10.9516 C23.6984615,12.1682 22.7356923,13.1516 21.5446154,13.1516 Z M34.4676923,13.1516 C33.2766154,13.1516 32.3138462,12.1682 32.3138462,10.9516 C32.3138462,9.735 33.2766154,8.7516 34.4676923,8.7516 C35.6587692,8.7516 36.6215385,9.735 36.6215385,10.9516 C36.6215385,12.1682 35.6587692,13.1516 34.4676923,13.1516 Z" id="Shape"></path>
                    </g>
                </g>
            </g>
        </g>
    </g>
</svg>