<?xml version="1.0" encoding="UTF-8"?>
<svg width="58px" height="72px" viewBox="0 0 58 72" version="1.1" xmlns="http://www.w3.org/2000/svg" xmlns:xlink="http://www.w3.org/1999/xlink">
    <title>ic-ios</title>
    <g id="Design" stroke="none" stroke-width="1" fill="none" fill-rule="evenodd">
        <g id="Desktop---1440" transform="translate(-926.000000, -2088.000000)" fill="#000000" fill-rule="nonzero">
            <g id="Skillset" transform="translate(170.000000, 1801.000000)">
                <g id="Group-21" transform="translate(705.000000, 243.000000)">
                    <g id="ic-ios" transform="translate(51.200000, 44.800000)">
                        <path d="M47.4525659,37.335936 C47.3654634,28.56128 54.5921561,24.352768 54.915278,24.14016 C50.8537756,18.188544 44.5262049,17.371904 42.2741854,17.278976 C36.8935024,16.731264 31.7699122,20.455424 29.0402341,20.455424 C26.3161756,20.455424 22.0987317,17.359232 17.636839,17.43808 C11.7672585,17.525376 6.35707317,20.85952 3.33658537,26.12544 C-2.75918049,36.723456 1.77717073,52.429696 7.71699512,61.031168 C10.620878,65.235456 14.0839024,69.966336 18.627278,69.793152 C23.0062829,69.619968 24.6584195,66.954624 29.952,66.954624 C35.2455805,66.954624 36.7319415,69.793152 41.3638244,69.704448 C46.0729756,69.61856 49.0583415,65.419904 51.9383415,61.19872 C55.2721171,56.314368 56.6446829,51.584896 56.7261659,51.345536 C56.6236098,51.297664 47.5466927,47.812864 47.4525659,37.335936 Z" id="Path"></path>
                        <path d="M38.7493463,11.586432 C41.1587122,8.654976 42.7911805,4.581632 42.347239,0.526592 C38.8701659,0.667392 34.6611512,2.842752 32.1646829,5.771392 C29.9281171,8.37056 27.9725268,12.508672 28.4965463,16.490496 C32.3754146,16.791808 36.3315512,14.512256 38.7493463,11.586432 Z" id="Path"></path>
                    </g>
                </g>
            </g>
        </g>
    </g>
</svg>