<?xml version="1.0" encoding="UTF-8"?>
<svg width="100px" height="48px" viewBox="0 0 100 48" version="1.1" xmlns="http://www.w3.org/2000/svg" xmlns:xlink="http://www.w3.org/1999/xlink">
    <title>ic-php</title>
    <g id="Design" stroke="none" stroke-width="1" fill="none" fill-rule="evenodd">
        <g id="Desktop---1440" transform="translate(-435.000000, -2100.000000)" fill="#000003" fill-rule="nonzero">
            <g id="Skillset" transform="translate(170.000000, 1801.000000)">
                <g id="Group-18" transform="translate(235.000000, 243.000000)">
                    <g id="ic-php" transform="translate(30.933333, 56.533333)">
                        <path d="M19.8074582,15.940658 C22.8708868,15.940658 24.9125272,16.5027751 25.9333474,17.6272019 C26.9531994,18.7516287 27.1962057,20.6816926 26.66256,23.4166235 C26.1050977,26.2647479 25.03161,28.2976099 23.4403543,29.5155945 C21.8490985,30.7337717 19.4275551,31.3420903 16.176692,31.3420903 L11.2720306,31.3420903 L14.2827918,15.940658 L19.8074582,15.940658 L19.8074582,15.940658 Z M0.161316872,46.9333333 L8.22467322,46.9333333 L10.137162,37.1496074 L17.0437695,37.1496074 C20.0913205,37.1496074 22.5982551,36.8319727 24.5663158,36.1947783 C26.5345702,35.5585464 28.3231354,34.4914863 29.9331733,32.9934056 C31.2843272,31.7584805 32.3775652,30.3965014 33.2148236,28.9070835 C34.0511139,27.4188206 34.645366,25.7755905 34.9966118,23.9787407 C35.8497479,19.6165576 35.2059264,16.218829 33.0670835,13.7845922 C30.9282407,11.3503555 27.5255713,10.1333333 22.8610117,10.1333333 L7.35546575,10.1333333 L0.161316872,46.9333333 Z" id="Shape"></path>
                        <path d="M40.4122029,0 L48.4005985,0 L46.4906074,9.78372593 L53.6073447,9.78372593 C58.0849377,9.78372593 61.173833,10.5618347 62.8738372,12.1163196 C64.5736481,13.671767 65.0829532,16.1916689 64.4032996,19.6752551 L61.0609119,36.8 L52.9456734,36.8 L56.1237068,20.5174683 C56.4852864,18.6651768 56.3526427,17.4017608 55.7246157,16.7281828 C55.0965887,16.0544122 53.760291,15.7173344 51.7164961,15.7173344 L45.3318124,15.7173344 L41.2165725,36.8 L33.2279835,36.8 L40.4122029,0 Z" id="Path"></path>
                        <path d="M82.2073538,15.940658 C85.2707964,15.940658 87.312446,16.5027751 88.3332708,17.6272019 C89.3535147,18.7516287 89.5963285,20.6816926 89.0624867,23.4166235 C88.5050219,26.2647479 87.4319166,28.2976099 85.8402664,29.5155945 C84.2490034,30.7337717 81.8274489,31.3420903 78.5765711,31.3420903 L73.672081,31.3420903 L76.6828559,15.940658 L82.2073538,15.940658 L82.2073538,15.940658 Z M62.5613169,46.9333333 L70.6247098,46.9333333 L72.5370137,37.1496074 L79.4436526,37.1496074 C82.4912174,37.1496074 84.9981633,36.8319727 86.9664267,36.1947783 C88.9344964,35.5585464 90.7230697,34.4914863 92.3333086,32.9934056 C93.6846622,31.7584805 94.7777115,30.3965014 95.6149738,28.9070835 C96.4510742,27.4188206 97.0455227,25.7755905 97.3965764,23.9787407 C98.2497164,19.6165576 97.6060856,16.218829 95.4670394,13.7845922 C93.3281868,11.3503555 89.9255019,10.1333333 85.2609212,10.1333333 L69.7556921,10.1333333 L62.5613169,46.9333333 Z" id="Shape"></path>
                    </g>
                </g>
            </g>
        </g>
    </g>
</svg>