<?xml version="1.0" encoding="UTF-8"?>
<svg width="101px" height="37px" viewBox="0 0 101 37" version="1.1" xmlns="http://www.w3.org/2000/svg" xmlns:xlink="http://www.w3.org/1999/xlink">
    <title>ic-rails</title>
    <g id="Design" stroke="none" stroke-width="1" fill="none" fill-rule="evenodd">
        <g id="Desktop---1440" transform="translate(-200.000000, -2106.000000)" fill="#CC0000">
            <g id="Skillset" transform="translate(170.000000, 1801.000000)">
                <g id="Group-16" transform="translate(0.000000, 243.000000)">
                    <g id="ic-rails" transform="translate(30.400000, 62.400000)">
                        <path d="M86.2495802,30.7321178 L86.2495802,35.2 L94.4136529,35.2 C96.086414,35.2 98.9575711,33.9904628 99.0574374,30.6086957 L99.0574374,28.8807854 C99.0574374,25.9927069 96.6606454,24.2894811 94.4136529,24.2894811 L90.3440999,24.2894811 L90.3440999,22.2159888 L98.4083062,22.2159888 L98.4083062,17.7234222 L90.6686655,17.7234222 C88.6713388,17.7234222 85.9999144,19.3525947 85.9999144,22.3887798 L85.9999144,23.943899 C85.9999144,26.9800842 88.6463722,28.5352034 90.6686655,28.5352034 C96.2861467,28.5598878 89.32047,28.5352034 94.5135193,28.5352034 L94.5135193,30.7074334 M42.5081265,29.6460028 C42.5081265,29.6460028 46.8772785,29.2757363 46.8772785,23.6970547 C46.8772785,18.1183731 41.5843629,17.6 41.5843629,17.6 L32.0471281,17.6 L32.0471281,35.2 L36.8407121,35.2 L36.8407121,30.9542777 L40.9851649,35.2 L48.0756745,35.2 L42.5081265,29.6460028 Z M40.6605993,26.0420757 L36.8407121,26.0420757 L36.8407121,22.0185133 L40.6855659,22.0185133 C40.6855659,22.0185133 41.759129,22.4134642 41.759129,24.0179523 C41.759129,25.6224404 40.6605993,26.0420757 40.6605993,26.0420757 Z M58.711439,17.7234222 L53.8429553,17.7234222 C50.3726002,17.7234222 49.1991708,20.8336606 49.1991708,22.3147265 L49.1991708,35.2 L54.0676545,35.2 L54.0676545,32.114446 L58.6365392,32.114446 L58.6365392,35.2 L63.3552234,35.2 L63.3552234,22.3147265 C63.3552234,18.5626928 59.909835,17.7234222 58.711439,17.7234222 Z M58.6365392,27.1281907 L54.0426879,27.1281907 L54.0426879,22.857784 C54.0426879,22.857784 54.0426879,21.8950912 55.5656495,21.8950912 L57.2384106,21.8950912 C58.5866061,21.8950912 58.6115726,22.857784 58.6115726,22.857784 L58.6115726,27.1281907 L58.6365392,27.1281907 Z" id="Shape"></path>
                        <rect id="Rectangle" x="65.0368189" y="17.6" width="5.15463918" height="17.6"></rect>
                        <polygon id="Path" points="77.5143012 30.6508475 77.5143012 17.6 72.2533137 17.6 72.2533137 30.6508475 72.2533137 35.2 77.5143012 35.2 84.6244477 35.2 84.6244477 30.6508475"></polygon>
                        <path d="M2.15022091,35.2 L21.788505,35.2 C21.788505,35.2 18.0348583,18.0784695 30.464152,11.1453678 C33.1737381,9.82832703 41.7996679,4.90806136 55.9193456,15.3449885 C56.3668002,14.9722411 56.7893962,14.6740432 56.7893962,14.6740432 C56.7893962,14.6740432 43.8629307,1.77698321 29.4698085,3.21827315 C22.2359596,3.86436865 13.3365853,10.4495727 8.11628191,19.147012 C2.89597854,27.8444513 2.15022091,35.2 2.15022091,35.2 Z" id="Path"></path>
                        <path d="M2.15022091,35.2 L21.788505,35.2 C21.788505,35.2 18.0348583,18.0784695 30.464152,11.1453678 C33.1737381,9.82832703 41.7996679,4.90806136 55.9193456,15.3449885 C56.3668002,14.9722411 56.7893962,14.6740432 56.7893962,14.6740432 C56.7893962,14.6740432 43.8629307,1.77698321 29.4698085,3.21827315 C22.2359596,3.86436865 13.3365853,10.4495727 8.11628191,19.147012 C2.89597854,27.8444513 2.15022091,35.2 2.15022091,35.2 Z" id="Path"></path>
                        <path d="M2.15022091,35.2 L21.788505,35.2 C21.788505,35.2 18.0348583,18.0760955 30.464152,11.1420326 C33.1737381,9.82480914 41.7996679,4.90386126 55.9193456,15.3422356 C56.3668002,14.9694365 56.7893962,14.6711972 56.7893962,14.6711972 C56.7893962,14.6711972 43.8629307,1.77234897 29.4698085,3.21383875 C22.211101,3.86002383 13.3117267,10.4461409 8.09142332,19.1447862 C2.87111995,27.8434314 2.15022091,35.2 2.15022091,35.2 Z M43.0674559,4.60562199 L43.1668902,2.94045276 C42.943163,2.8161864 42.3216983,2.51794713 40.7556073,2.07058824 L40.6561729,3.7109042 C41.4765063,3.98429019 42.2719811,4.28252946 43.0674559,4.60562199 Z" id="Shape"></path>
                        <path d="M40.8951262,9.36328824 L40.7944309,10.9447552 C41.625167,10.9698578 42.455903,11.0702684 43.286639,11.2459869 L43.3873343,9.68962268 C42.5314245,9.51390414 41.7006884,9.41349354 40.8951262,9.36328824 Z M31.5808131,1.53126162 L31.8325513,1.53126162 L31.3290749,0 C30.5486865,0 29.7431243,0.0502052989 28.9123883,0.150615897 L29.3906908,1.63167221 C30.1207316,1.55636427 30.8507723,1.53126162 31.5808131,1.53126162 Z M32.7891564,10.7690366 L33.3681543,12.5011194 C34.098195,12.1496823 34.8282358,11.8484505 35.5582765,11.6225267 L35.0044525,9.96575183 C34.1485427,10.2167783 33.4185019,10.4929075 32.7891564,10.7690366 Z M21.3602425,4.16703981 L20.2274206,2.434957 C19.5980751,2.76129144 18.9435558,3.11272853 18.2638627,3.51437092 L19.4218584,5.27155638 C20.0763777,4.86991399 20.7057232,4.49337425 21.3602425,4.16703981 Z M26.5208754,15.4632321 L27.7292188,17.2706228 C28.1571737,16.6430566 28.6606501,16.0656956 29.2144741,15.4883347 L28.0816522,13.7813545 C27.5026544,14.3085102 26.9740042,14.8858711 26.5208754,15.4632321 Z M22.8706716,23.5462852 L24.909751,25.1528547 C25.0104463,24.1738514 25.186663,23.1948481 25.4384012,22.2158448 L23.6258862,20.7849937 C23.2986266,21.7137918 23.0720622,22.6425898 22.8706716,23.5462852 Z M11.8445388,11.6225267 L10.0571977,10.0661624 C9.40267836,10.6937287 8.77333288,11.3212949 8.19433503,11.9488611 L10.1327191,13.605636 C10.6613693,12.9278645 11.2403672,12.2500929 11.8445388,11.6225267 Z M4.24204542,22.843411 L1.3470562,21.7890997 C0.868753639,22.8685136 0.340103435,24.1236461 0.088365243,24.8014176 L2.98335445,25.8557289 C3.3106141,25.0022388 3.83926431,23.772209 4.24204542,22.843411 Z M22.4930644,29.9223581 C22.543412,31.2527985 22.6692811,32.3322125 22.7951502,33.085292 L25.8160085,34.1647059 C25.5894441,33.1857026 25.3628797,32.081186 25.2118368,30.9013615 L22.4930644,29.9223581 Z" id="Shape"></path>
                    </g>
                </g>
            </g>
        </g>
    </g>
</svg>