<?xml version="1.0" encoding="UTF-8"?>
<svg width="74px" height="64px" viewBox="0 0 74 64" version="1.1" xmlns="http://www.w3.org/2000/svg" xmlns:xlink="http://www.w3.org/1999/xlink">
    <title>ic-react</title>
    <g id="Design" stroke="none" stroke-width="1" fill="none" fill-rule="evenodd">
        <g id="Desktop---1440" transform="translate(-683.000000, -1912.000000)" fill="#61DAFB" fill-rule="nonzero">
            <g id="Skillset" transform="translate(170.000000, 1801.000000)">
                <g id="Group-23" transform="translate(470.000000, 63.000000)">
                    <g id="ic-react" transform="translate(43.636364, 48.000000)">
                        <path d="M72.623799,32 C72.623799,27.2402746 66.6075388,22.7295195 57.383592,19.9322654 C59.5121951,10.617849 58.5661493,3.20732265 54.3976349,0.834782609 C53.4368071,0.27826087 52.3133777,0.0146453089 51.0864745,0.0146453089 L51.0864745,3.2805492 C51.7664449,3.2805492 52.3133777,3.41235698 52.7716186,3.66132723 C54.781966,4.80366133 55.654102,9.15331808 54.9741316,14.7478261 C54.8115299,16.1244851 54.5454545,17.5743707 54.2202513,19.0535469 C51.322986,18.3505721 48.1596452,17.8086957 44.8337029,17.4572082 C42.8381375,14.7478261 40.7686622,12.2874142 38.684405,10.1345538 C43.5033259,5.69702517 48.0266075,3.26590389 51.1012565,3.26590389 L51.1012565,0 C51.1012565,0 51.1012565,0 51.1012565,0 C47.0362158,0 41.7147081,2.87048055 36.3340724,7.84988558 C30.9534368,2.89977117 25.631929,0.0585812357 21.5668884,0.0585812357 L21.5668884,3.32448513 C24.6267554,3.32448513 29.1648189,5.7409611 33.9837398,10.1491991 C31.9142646,12.3020595 29.8447894,14.7478261 27.8787879,17.4572082 C24.5380636,17.8086957 21.3747228,18.3505721 18.4774575,19.0681922 C18.1374723,17.6036613 17.8861789,16.1830664 17.7087953,14.8210526 C17.0140429,9.22654462 17.8713969,4.87688787 19.8669623,3.71990847 C20.3104213,3.45629291 20.886918,3.33913043 21.5668884,3.33913043 L21.5668884,0.0732265446 C21.5668884,0.0732265446 21.5668884,0.0732265446 21.5668884,0.0732265446 C20.3252033,0.0732265446 19.2017738,0.336842105 18.2261641,0.893363844 C14.0724316,3.26590389 13.1411678,10.6617849 15.2845528,19.9469108 C6.09016999,22.7588101 0.103473762,27.2549199 0.103473762,32 C0.103473762,36.7597254 6.11973392,41.2704805 15.3436807,44.0677346 C13.2150776,53.382151 14.1611234,60.7926773 18.3296378,63.1652174 C19.2904656,63.7217391 20.413895,63.9853547 21.6555802,63.9853547 C25.7206208,63.9853547 31.0421286,61.1148741 36.4227642,56.1354691 C41.8033999,61.0855835 47.1249076,63.9267735 51.1899483,63.9267735 C52.4316334,63.9267735 53.5550628,63.6631579 54.5306726,63.1066362 C58.684405,60.7340961 59.6156689,53.3382151 57.4722838,44.0530892 C66.6371027,41.2558352 72.623799,36.7450801 72.623799,32 Z M53.3776792,22.2315789 C52.8307465,24.1208238 52.1507761,26.0686499 51.3821138,28.016476 C50.7760532,26.8448513 50.1404287,25.6732265 49.4456763,24.5016018 C48.7657058,23.3299771 48.0413895,22.187643 47.3170732,21.0745995 C49.4161123,21.382151 51.4412417,21.7629291 53.3776792,22.2315789 Z M46.6075388,37.828833 C45.4545455,39.8059497 44.2719882,41.6805492 43.045085,43.423341 C40.8425721,43.61373 38.6104952,43.7162471 36.3636364,43.7162471 C34.1315595,43.7162471 31.8994826,43.61373 29.7117517,43.4379863 C28.4848485,41.6951945 27.2875092,39.8352403 26.1345159,37.8727689 C25.0110865,35.9542334 23.9911308,34.0064073 23.059867,32.0439359 C23.9763489,30.0814645 25.0110865,28.1189931 26.1197339,26.2004577 C27.2727273,24.223341 28.4552846,22.3487414 29.6821877,20.6059497 C31.8847007,20.4155606 34.1167775,20.3130435 36.3636364,20.3130435 C38.5957132,20.3130435 40.8277901,20.4155606 43.0155211,20.5913043 C44.2424242,22.3340961 45.4397635,24.1940503 46.5927568,26.1565217 C47.7161863,28.0750572 48.7361419,30.0228833 49.6674058,31.9853547 C48.7361419,33.9478261 47.7161863,35.9102975 46.6075388,37.828833 Z M51.3821138,35.9249428 C52.18034,37.8874142 52.8603104,39.8498856 53.4220251,41.7537757 C51.4855876,42.2224256 49.4456763,42.617849 47.3318551,42.9254005 C48.0561715,41.7977117 48.7804878,40.6407323 49.4604582,39.4544622 C50.1404287,38.2828375 50.7760532,37.0965675 51.3821138,35.9249428 Z M36.3932003,51.5514874 C35.0184775,50.1455378 33.6437546,48.5784897 32.2838137,46.8649886 C33.6141907,46.9235698 34.9741316,46.9675057 36.3488544,46.9675057 C37.7383592,46.9675057 39.113082,46.9382151 40.4582409,46.8649886 C39.127864,48.5784897 37.7531412,50.1455378 36.3932003,51.5514874 Z M25.3954176,42.9254005 C23.2963784,42.617849 21.2712491,42.2370709 19.3348115,41.7684211 C19.8817443,39.8791762 20.5617147,37.9313501 21.3303769,35.983524 C21.9364375,37.1551487 22.5720621,38.3267735 23.2668145,39.4983982 C23.9615669,40.6700229 24.6711013,41.812357 25.3954176,42.9254005 Z M36.3192905,12.4485126 C37.6940133,13.8544622 39.0687361,15.4215103 40.428677,17.1350114 C39.0983001,17.0764302 37.7383592,17.0324943 36.3636364,17.0324943 C34.9741316,17.0324943 33.5994087,17.0617849 32.2542498,17.1350114 C33.5846268,15.4215103 34.9593496,13.8544622 36.3192905,12.4485126 Z M25.3806356,21.0745995 C24.6563193,22.2022883 23.932003,23.3592677 23.2520325,24.5455378 C22.5720621,25.7171625 21.9364375,26.8887872 21.3303769,28.0604119 C20.5321508,26.0979405 19.8521803,24.1354691 19.2904656,22.2315789 C21.2269032,21.7775744 23.2668145,21.382151 25.3806356,21.0745995 Z M12.0029564,39.4105263 C6.77014043,37.1990847 3.38507021,34.2993135 3.38507021,32 C3.38507021,29.7006865 6.77014043,26.78627 12.0029564,24.5894737 C13.2742055,24.0475973 14.6637103,23.5643021 16.097561,23.1102975 C16.940133,25.980778 18.0487805,28.9684211 19.4235033,32.0292906 C18.0635625,35.0755149 16.969697,38.0485126 16.1419069,40.9043478 C14.6784922,40.4503432 13.2889874,39.9524027 12.0029564,39.4105263 Z M19.9556541,60.3386728 C17.9453067,59.1963387 17.0731707,54.8466819 17.7531412,49.2521739 C17.9157428,47.8755149 18.1818182,46.4256293 18.5070214,44.9464531 C21.4042868,45.6494279 24.5676275,46.1913043 27.8935698,46.5427918 C29.8891353,49.2521739 31.9586105,51.7125858 34.0428677,53.8654462 C29.2239468,58.3029748 24.7006652,60.7340961 21.6260163,60.7340961 C20.9608278,60.7194508 20.3991131,60.587643 19.9556541,60.3386728 Z M55.0184775,49.1789474 C55.7132299,54.7734554 54.8558758,59.1231121 52.8603104,60.2800915 C52.4168514,60.5437071 51.8403548,60.6608696 51.1603843,60.6608696 C48.1005174,60.6608696 43.5624538,58.2443936 38.7435329,53.8361556 C40.8130081,51.6832952 42.8824834,49.2375286 44.8484848,46.5281465 C48.1892092,46.176659 51.3525499,45.6347826 54.2498152,44.9171625 C54.5898004,46.3963387 54.8558758,47.8169336 55.0184775,49.1789474 Z M60.7095344,39.4105263 C59.4382853,39.9524027 58.0487805,40.4356979 56.6149298,40.8897025 C55.7723577,38.019222 54.6637103,35.0315789 53.2889874,31.9707094 C54.6489283,28.9244851 55.7427938,25.9514874 56.5705839,23.0956522 C58.0339985,23.5496568 59.4235033,24.0475973 60.7243163,24.5894737 C65.9571323,26.8009153 69.3422025,29.7006865 69.3422025,32 C69.3274205,34.2993135 65.9423503,37.21373 60.7095344,39.4105263 Z" id="Shape"></path>
                        <ellipse id="Oval" cx="36.3488544" cy="32" rx="6.75535846" ry="6.69290618"></ellipse>
                    </g>
                </g>
            </g>
        </g>
    </g>
</svg>