<?xml version="1.0" encoding="UTF-8"?>
<svg width="80px" height="80px" viewBox="0 0 80 80" version="1.1" xmlns="http://www.w3.org/2000/svg" xmlns:xlink="http://www.w3.org/1999/xlink">
    <title>ic-word-press</title>
    <g id="Design" stroke="none" stroke-width="1" fill="none" fill-rule="evenodd">
        <g id="Desktop---1440" transform="translate(-680.000000, -2084.000000)" fill="#12A5D7" fill-rule="nonzero">
            <g id="Skillset" transform="translate(170.000000, 1801.000000)">
                <g id="Group-19" transform="translate(470.000000, 243.000000)">
                    <g id="ic-word-press" transform="translate(40.727273, 40.727273)">
                        <g id="W_2_" transform="translate(14.727273, 14.727273)">
                            <path d="M0,24.5454545 C0,34.2 5.72727273,42.7090909 13.9090909,46.6363636 L2.12727273,14.5636364 C0.818181818,17.6727273 0,20.9454545 0,24.5454545 Z" id="Path"></path>
                            <path d="M41.0727273,23.2363636 C41.0727273,20.1272727 39.9272727,18.1636364 39.1090909,16.5272727 C37.8,14.5636364 36.6545455,12.7636364 36.6545455,10.8 C36.6545455,8.50909091 38.2909091,6.38181818 40.7454545,6.38181818 C40.9090909,6.38181818 40.9090909,6.38181818 41.0727273,6.38181818 C36.8181818,2.45454545 30.9272727,0 24.5454545,0 C16.0363636,0 8.34545455,4.41818182 4.09090909,11.1272727 C4.74545455,11.1272727 5.23636364,11.1272727 5.72727273,11.1272727 C8.34545455,11.1272727 12.2727273,10.8 12.2727273,10.8 C13.5818182,10.8 13.7454545,12.6 12.4363636,12.7636364 C12.4363636,12.7636364 11.1272727,12.9272727 9.65454545,12.9272727 L18.6545455,39.4363636 L24.0545455,23.4 L19.9636364,13.0909091 C18.6545455,13.0909091 17.3454545,12.9272727 17.3454545,12.9272727 C16.0363636,12.9272727 16.2,10.8 17.5090909,10.9636364 C17.5090909,10.9636364 21.6,11.2909091 24.0545455,11.2909091 C26.6727273,11.2909091 30.6,10.9636364 30.6,10.9636364 C31.9090909,10.9636364 32.0727273,12.7636364 30.7636364,12.9272727 C30.7636364,12.9272727 29.4545455,13.0909091 27.9818182,13.0909091 L36.8181818,39.4363636 L39.2727273,31.2545455 C40.2545455,27.8181818 41.0727273,25.3636364 41.0727273,23.2363636 Z" id="Path"></path>
                            <path d="M25.0363636,26.6727273 L17.6727273,48.1090909 C19.8,48.7636364 22.2545455,49.0909091 24.5454545,49.0909091 C27.3272727,49.0909091 30.1090909,48.6 32.7272727,47.6181818 C32.7272727,47.4545455 32.5636364,47.4545455 32.5636364,47.2909091 L25.0363636,26.6727273 Z" id="Path"></path>
                            <path d="M46.1454545,12.7636364 C46.3090909,13.5818182 46.3090909,14.4 46.3090909,15.2181818 C46.3090909,17.6727273 45.8181818,20.4545455 44.5090909,24.0545455 L36.8181818,45.8181818 C44.1818182,41.5636364 49.0909091,33.5454545 49.0909091,24.5454545 C49.0909091,20.2909091 47.9454545,16.2 46.1454545,12.7636364 Z" id="Path"></path>
                        </g>
                        <path d="M39.2727273,0 C17.5090909,0 0,17.5090909 0,39.2727273 C0,61.0363636 17.5090909,78.5454545 39.2727273,78.5454545 C61.0363636,78.5454545 78.5454545,61.0363636 78.5454545,39.2727273 C78.5454545,17.5090909 61.0363636,0 39.2727273,0 Z M39.2727273,70.3636364 C22.0909091,70.3636364 8.18181818,56.4545455 8.18181818,39.2727273 C8.18181818,22.0909091 22.0909091,8.18181818 39.2727273,8.18181818 C56.4545455,8.18181818 70.3636364,22.0909091 70.3636364,39.2727273 C70.3636364,56.4545455 56.4545455,70.3636364 39.2727273,70.3636364 Z" id="Shape"></path>
                    </g>
                </g>
            </g>
        </g>
    </g>
</svg>