<?xml version="1.0" encoding="UTF-8"?>
<svg width="108px" height="43px" viewBox="0 0 108 43" version="1.1" xmlns="http://www.w3.org/2000/svg" xmlns:xlink="http://www.w3.org/1999/xlink">
    <title>img-node-js</title>
    <defs>
        <linearGradient x1="63.7855339%" y1="17.4797081%" x2="33.154224%" y2="89.7187737%" id="linearGradient-1">
            <stop stop-color="#41873F" offset="0%"></stop>
            <stop stop-color="#418B3D" offset="32.88%"></stop>
            <stop stop-color="#419637" offset="63.52%"></stop>
            <stop stop-color="#3FA92D" offset="93.19%"></stop>
            <stop stop-color="#3FAE2A" offset="100%"></stop>
        </linearGradient>
        <path d="M11.8232421,0.170455425 C11.4519376,-0.0456449673 10.9942942,-0.0456449673 10.6232255,0.170455425 L0.683870291,5.95072488 C0.312093962,6.16682527 0.0832722362,6.565981 0.0832722362,6.99865725 L0.0832722362,18.5682301 C0.0832722362,19.0004308 0.312093962,19.3995866 0.683398493,19.6161624 L10.6227537,25.4011866 C10.9942942,25.617287 11.4519376,25.617287 11.8237139,25.4011866 L21.7607102,19.6161624 C22.1320147,19.3998243 22.3606006,19.0004308 22.3606006,18.5682301 L22.3606006,6.99818179 C22.3606006,6.565981 22.1317788,6.16682527 21.7602384,5.95072488 L11.8232421,0.170455425 Z" id="path-2"></path>
        <linearGradient x1="45.0943449%" y1="55.2218545%" x2="129.209111%" y2="-18.3006709%" id="linearGradient-4">
            <stop stop-color="#41873F" offset="13.76%"></stop>
            <stop stop-color="#54A044" offset="40.32%"></stop>
            <stop stop-color="#66B848" offset="71.36%"></stop>
            <stop stop-color="#6CC04A" offset="90.81%"></stop>
        </linearGradient>
        <path d="M11.8232421,0.170455425 C11.4519376,-0.0456449673 10.9942942,-0.0456449673 10.6232255,0.170455425 L0.683870291,5.95072488 C0.312093962,6.16682527 0.0832722362,6.565981 0.0832722362,6.99865725 L0.0832722362,18.5682301 C0.0832722362,19.0004308 0.312093962,19.3995866 0.683398493,19.6161624 L10.6227537,25.4011866 C10.9942942,25.617287 11.4519376,25.617287 11.8237139,25.4011866 L21.7607102,19.6161624 C22.1320147,19.3998243 22.3606006,19.0004308 22.3606006,18.5682301 L22.3606006,6.99818179 C22.3606006,6.565981 22.1317788,6.16682527 21.7602384,5.95072488 L11.8232421,0.170455425 Z" id="path-5"></path>
        <linearGradient x1="-4407.17%" y1="50%" x2="5334.53%" y2="50%" id="linearGradient-7">
            <stop stop-color="#6CC04A" offset="9.19%"></stop>
            <stop stop-color="#66B848" offset="28.64%"></stop>
            <stop stop-color="#54A044" offset="59.68%"></stop>
            <stop stop-color="#41873F" offset="86.24%"></stop>
        </linearGradient>
        <linearGradient x1="-4.47793525%" y1="50.0000177%" x2="101.564561%" y2="50.0000177%" id="linearGradient-8">
            <stop stop-color="#6CC04A" offset="9.19%"></stop>
            <stop stop-color="#66B848" offset="28.64%"></stop>
            <stop stop-color="#54A044" offset="59.68%"></stop>
            <stop stop-color="#41873F" offset="86.24%"></stop>
        </linearGradient>
        <linearGradient x1="-9677.72%" y1="50%" x2="63.98%" y2="50%" id="linearGradient-9">
            <stop stop-color="#6CC04A" offset="9.19%"></stop>
            <stop stop-color="#66B848" offset="28.64%"></stop>
            <stop stop-color="#54A044" offset="59.68%"></stop>
            <stop stop-color="#41873F" offset="86.24%"></stop>
        </linearGradient>
        <linearGradient x1="-103.698492%" y1="50%" x2="100.585694%" y2="50%" id="linearGradient-10">
            <stop stop-color="#6CC04A" offset="9.19%"></stop>
            <stop stop-color="#66B848" offset="28.64%"></stop>
            <stop stop-color="#54A044" offset="59.68%"></stop>
            <stop stop-color="#41873F" offset="86.24%"></stop>
        </linearGradient>
        <linearGradient x1="130.347474%" y1="-53.0758759%" x2="4.35800113%" y2="109.684985%" id="linearGradient-11">
            <stop stop-color="#41873F" offset="0%"></stop>
            <stop stop-color="#418B3D" offset="32.88%"></stop>
            <stop stop-color="#419637" offset="63.52%"></stop>
            <stop stop-color="#3FA92D" offset="93.19%"></stop>
            <stop stop-color="#3FAE2A" offset="100%"></stop>
        </linearGradient>
    </defs>
    <g id="Design" stroke="none" stroke-width="1" fill="none" fill-rule="evenodd">
        <g id="Desktop---1440" transform="translate(-197.000000, -1913.000000)">
            <g id="Skillset" transform="translate(170.000000, 1801.000000)">
                <g id="Group-20" transform="translate(0.000000, 63.000000)">
                    <g id="img-node-js" transform="translate(27.294118, 49.882353)">
                        <path d="M22.4103752,22.7286013 C22.4103752,22.2915727 22.1816401,21.8899146 21.8065523,21.6734181 L11.8085384,15.8871211 C11.6395246,15.7871814 11.4499743,15.7351937 11.2580634,15.7271226 C11.2408316,15.7271226 11.1688355,15.7271226 11.1546723,15.7271226 C10.9637056,15.7349563 10.7741553,15.786944 10.6025449,15.8871211 L0.604531071,21.6734181 C0.231803792,21.8899146 0,22.2915727 0,22.7286013 L0.021952905,38.3094671 C0.021952905,38.5259637 0.133841904,38.7277422 0.323392256,38.833854 C0.508929711,38.9456631 0.738372975,38.9456631 0.923202272,38.833854 L6.86512188,35.4121644 C7.24091785,35.1878341 7.46965295,34.7916359 7.46965295,34.3586429 L7.46965295,27.0791845 C7.46965295,26.6452419 7.69815201,26.2435839 8.07253165,26.0280369 L10.6025449,24.5626497 C10.7911511,24.4532145 10.9972251,24.3995652 11.2077842,24.3995652 C11.4136222,24.3995652 11.6251254,24.4532145 11.8083023,24.5626497 L14.3376075,26.0280369 C14.7119871,26.2438212 14.9414304,26.6454793 14.9414304,27.0791845 L14.9414304,34.3586429 C14.9414304,34.7916359 15.1732342,35.1902079 15.5466696,35.4121644 L21.4869368,38.833854 C21.6731825,38.9456631 21.9059305,38.9456631 22.0907598,38.833854 C22.2748809,38.7275048 22.3907828,38.5259637 22.3907828,38.3094671 L22.4103752,22.7286013 Z" id="Path" fill="#333333" fill-rule="nonzero"></path>
                        <path d="M71.4529757,0.895976138 C71.2658687,0.790936283 71.0377066,0.793318139 70.8529591,0.902645335 C70.6686834,1.01221072 70.5551922,1.21204844 70.5551922,1.42808279 L70.5551922,16.9101475 C70.5551922,17.0623481 70.4744979,17.203354 70.3442544,17.2795734 C70.213539,17.3557928 70.0523863,17.3557928 69.9214349,17.2795734 L67.4184947,15.823783 C67.0449885,15.6065577 66.585597,15.6070341 66.2123267,15.8242593 L56.2147228,21.6486121 C55.8409806,21.8663137 55.610931,22.2686092 55.610931,22.7037743 L55.610931,34.3548617 C55.610931,34.790265 55.8409806,35.1923223 56.2144869,35.4105003 L66.2116189,41.2391404 C66.5853611,41.4568421 67.0454604,41.4568421 67.4192026,41.2391404 L77.4177503,35.4105003 C77.7912565,35.1925605 78.0213062,34.790265 78.0213062,34.3548617 L78.0213062,5.311461 C78.0213062,4.86986488 77.78465,4.4623293 77.4021777,4.2470095 L71.4529757,0.895976138 Z M70.5254627,30.5267426 C70.5254627,30.6353552 70.4678913,30.7361077 70.3744558,30.7901759 L66.941879,32.7876004 C66.8486794,32.8416685 66.7337726,32.8416685 66.640573,32.7876004 L63.2079963,30.7901759 C63.1145607,30.7361077 63.0569893,30.6353552 63.0569893,30.5267426 L63.0569893,26.5254625 C63.0569893,26.4168498 63.1145607,26.3160973 63.2077603,26.2615528 L66.640337,24.2600791 C66.7337726,24.2055346 66.8489154,24.2055346 66.9423509,24.2600791 L70.3749277,26.2615528 C70.4681273,26.3160973 70.5256987,26.4168498 70.5256987,26.5254625 L70.5254627,30.5267426 L70.5254627,30.5267426 Z" id="Shape" fill="#333333" fill-rule="nonzero"></path>
                        <g id="Group" transform="translate(82.171376, 15.727123)" fill-rule="nonzero">
                            <path d="M22.5458404,10.9803104 C22.9273701,10.7647793 23.1621948,10.3676367 23.1621948,9.93822325 L23.1621948,7.14597613 C23.1621948,6.71656272 22.9273701,6.31918454 22.5453562,6.10365341 L12.3537193,0.346027588 C11.9702529,0.12908313 11.49673,0.128847577 11.1125373,0.344378716 L0.858683959,6.10436006 C0.475459626,6.31965565 0.239424425,6.71726938 0.239424425,7.14786055 L0.239424425,18.6671166 C0.239424425,19.1002988 0.478364675,19.5000326 0.864978231,19.7141504 L11.0551626,25.3638928 C11.4308822,25.5725929 11.8915745,25.5749485 12.269715,25.3704883 L18.4332598,22.0371756 C18.6288665,21.9314122 18.7506364,21.7316632 18.7516048,21.5144832 C18.7532994,21.2973031 18.6344345,21.0961407 18.4407646,20.9877863 L8.12178972,15.2249783 C7.92908816,15.1175661 7.81070743,14.917817 7.81070743,14.7020503 L7.81070743,11.0919626 C7.81070743,10.876667 7.92860398,10.6773891 8.12057928,10.5699768 L11.3321105,8.76846627 C11.5231175,8.66105403 11.7593948,8.66105403 11.9504017,8.76846627 L15.1636276,10.5699768 C15.3556029,10.6773891 15.4734995,10.876667 15.4734995,11.0919626 L15.4734995,13.9322626 C15.4734995,14.1480293 15.5921223,14.3473072 15.7838555,14.4547195 C15.9758308,14.5626028 16.2123502,14.5616606 16.4038413,14.4535417 L22.5458404,10.9803104 Z" id="Path" fill="#333333"></path>
                            <path d="M11.5819447,10.4406581 C11.6555393,10.3992008 11.74608,10.3992008 11.8196745,10.4406581 L13.787845,11.5454024 C13.8614396,11.5868598 13.9067099,11.6629435 13.9067099,11.7458582 L13.9067099,13.9572312 C13.9067099,14.0401459 13.8614396,14.1162296 13.787845,14.157687 L11.8196745,15.2624313 C11.74608,15.3038886 11.6555393,15.3038886 11.5819447,15.2624313 L9.6152268,14.157687 C9.54163224,14.1162296 9.4963619,14.0401459 9.4963619,13.9572312 L9.4963619,11.7458582 C9.4963619,11.6629435 9.54163224,11.5868598 9.6152268,11.5454024 L11.5819447,10.4406581 Z" id="Path" fill="#699F63"></path>
                        </g>
                        <g id="Group" transform="translate(27.390459, 15.727123)">
                            <path d="M11.8232421,0.170455425 C11.4519376,-0.0456449673 10.9942942,-0.0456449673 10.6232255,0.170455425 L0.683870291,5.95072488 C0.312093962,6.16682527 0.0832722362,6.565981 0.0832722362,6.99865725 L0.0832722362,18.5682301 C0.0832722362,19.0004308 0.312093962,19.3995866 0.683398493,19.6161624 L10.6227537,25.4011866 C10.9942942,25.617287 11.4519376,25.617287 11.8237139,25.4011866 L21.7607102,19.6161624 C22.1320147,19.3998243 22.3606006,19.0004308 22.3606006,18.5682301 L22.3606006,6.99818179 C22.3606006,6.565981 22.1317788,6.16682527 21.7602384,5.95072488 L11.8232421,0.170455425 Z" id="XMLID_143_" fill="url(#linearGradient-1)" fill-rule="nonzero"></path>
                            <g id="Clipped">
                                <mask id="mask-3" fill="white">
                                    <use xlink:href="#path-2"></use>
                                </mask>
                                <g id="SVGID_1_"></g>
                                <g id="Group" mask="url(#mask-3)">
                                    <path d="M10.6022305,0.170455425 L0.642116223,5.95072488 C0.270339894,6.16682527 0,6.565981 0,6.99865725 L0,18.5682301 C0,18.8542243 0.121251925,19.1242904 0.309734975,19.3380134 L11.5007686,0.0454072331 C11.2002337,-0.0292413072 10.8751653,0.011648976 10.6022305,0.170455425 Z" id="Path"></path>
                                    <path d="M11.5562048,25.5181518 C11.6529233,25.4912878 11.7472828,25.4527749 11.8359807,25.4011866 L21.7854796,19.6161624 C22.1567841,19.3998243 22.4103752,19.0004308 22.4103752,18.5682301 L22.4103752,6.99818179 C22.4103752,6.68009342 22.2693078,6.38054832 22.0470912,6.15802911 L11.5562048,25.5181518 Z" id="Path"></path>
                                    <path d="M21.779818,5.95072488 L11.8126267,0.170455425 C11.714257,0.113161481 11.6090461,0.0722711983 11.5007686,0.0454072331 L0.309734975,19.3380134 C0.406217537,19.4473712 0.519213008,19.5427026 0.644711109,19.6159247 L10.6286512,25.4009488 C10.9114937,25.5654609 11.2476494,25.6039739 11.5559689,25.5179141 L22.0470912,6.15779137 C21.9673574,6.07838815 21.8779518,6.00778109 21.779818,5.95072488 Z" id="Path" fill="url(#linearGradient-4)" fill-rule="nonzero"></path>
                                </g>
                            </g>
                            <g id="Clipped">
                                <mask id="mask-6" fill="white">
                                    <use xlink:href="#path-5"></use>
                                </mask>
                                <g id="SVGID_4_"></g>
                                <g id="Group" mask="url(#mask-6)">
                                    <g transform="translate(0.000000, -2.139608)" id="Path">
                                        <path d="M22.4103752,20.7078379 L22.4103752,9.13778963 C22.4103752,8.70558885 22.1513584,8.30643312 21.779818,8.09033272 L11.8126267,2.31006327 C11.6982158,2.24349769 11.5741331,2.19999233 11.4467478,2.17431704 L22.3728673,20.9857492 C22.3962213,20.8956479 22.4103752,20.8029316 22.4103752,20.7078379 Z" fill="none"></path>
                                        <path d="M0.642116223,8.09033272 C0.270339894,8.30643312 0,8.70558885 0,9.1382651 L0,20.7078379 C0,21.1400387 0.273642476,21.5391944 0.644711109,21.7557703 L10.6286512,27.5407944 C10.8633704,27.6772539 11.1348898,27.727178 11.3967373,27.6910424 L0.701798591,8.05562353 L0.642116223,8.09033272 Z" fill="none"></path>
                                        <polygon fill="url(#linearGradient-7)" fill-rule="nonzero" points="10.291552 0.185194946 10.1547307 0.263884967 10.3373163 0.263884967"></polygon>
                                        <path d="M21.7854796,21.7557703 C22.0751631,21.586979 22.2912463,21.3062149 22.3731032,20.9859869 L11.4469837,2.17455477 C11.1617822,2.11726083 10.8591242,2.16076619 10.6022305,2.310301 L0.70203449,8.05586126 L11.3969732,27.6912802 C11.5495997,27.6703596 11.6991594,27.6204354 11.8359807,27.5410322 L21.7854796,21.7557703 Z" fill="url(#linearGradient-8)" fill-rule="nonzero"></path>
                                        <polygon fill="url(#linearGradient-9)" fill-rule="nonzero" points="22.7120896 21.5696244 22.6462739 21.4562252 22.6462739 21.6081373"></polygon>
                                        <path d="M21.7854796,21.7557703 L11.8359807,27.5407944 C11.6991594,27.6204354 11.5495997,27.6701218 11.3969732,27.6910424 L11.5951281,28.0547758 L22.6462739,21.6081373 L22.6462739,21.4562252 L22.3731032,20.9859869 C22.2912463,21.3062149 22.0751631,21.5867413 21.7854796,21.7557703 Z" fill="url(#linearGradient-10)" fill-rule="nonzero"></path>
                                        <path d="M21.7854796,21.7557703 L11.8359807,27.5407944 C11.6991594,27.6204354 11.5495997,27.6701218 11.3969732,27.6910424 L11.5951281,28.0547758 L22.6462739,21.6081373 L22.6462739,21.4562252 L22.3731032,20.9859869 C22.2912463,21.3062149 22.0751631,21.5867413 21.7854796,21.7557703 Z" fill="url(#linearGradient-11)" fill-rule="nonzero"></path>
                                    </g>
                                </g>
                            </g>
                        </g>
                    </g>
                </g>
            </g>
        </g>
    </g>
</svg>