<?xml version="1.0" encoding="UTF-8"?>
<svg width="580px" height="370px" viewBox="0 0 580 370" version="1.1" xmlns="http://www.w3.org/2000/svg" xmlns:xlink="http://www.w3.org/1999/xlink">
    <title>header-illustration</title>
    <defs>
        <path d="M46.2966566,0.155366862 C47.8817187,2.7396981 49.2240199,2.43924251 49.2240199,7.6722963 L49.2168101,7.19525926 L0.808035354,6.08625185 C0.810757187,6.07064587 0.813520981,6.0551141 0.816326446,6.039656" id="path-1"></path>
        <linearGradient x1="100%" y1="50.3161948%" x2="98.5254225%" y2="46.1299544%" id="linearGradient-3">
            <stop stop-color="#700E76" offset="0%"></stop>
            <stop stop-color="#7C1275" offset="100%"></stop>
        </linearGradient>
        <path d="M13.7885781,0.684545527 C15.7572365,1.03487009 18.8087791,2.23782664 21.1574966,6.15328571 C23.1846015,9.54187755 27.9632874,9.17893878 30.3758279,11.7544082 C33.1044462,14.6566818 32.2273182,16.5585647 32.1545262,18.3492515 L0.169495093,8.49631572 C0.977814256,7.97846371 1.74282572,7.285042 2.42105077,6.15328571 C3.99935856,3.5171598 5.90251446,2.11055807 7.58083085,1.36589265" id="path-4"></path>
        <linearGradient x1="100%" y1="57.984191%" x2="95.2396961%" y2="36.5794743%" id="linearGradient-6">
            <stop stop-color="#7D1374" offset="0%"></stop>
            <stop stop-color="#EB3B6C" offset="100%"></stop>
        </linearGradient>
        <linearGradient x1="100%" y1="49.7349294%" x2="99.0559441%" y2="48.1445058%" id="linearGradient-7">
            <stop stop-color="#EB3B6C" offset="0%"></stop>
            <stop stop-color="#F04467" offset="100%"></stop>
        </linearGradient>
        <path d="M21.3955267,1.46019263 L38.5679895,2.79059157 C37.4753114,14.4487676 31.1984704,14.4330486 30.5207084,22.2030367 C30.1363622,30.0601469 34.9281184,30.1024653 32.5394243,43.3375347 C32.3130085,44.8670865 31.8300558,46.1677804 31.1528931,47.2719224 L13.5346309,29.0178291 C15.5537407,19.6689836 18.1807232,10.4645612 21.3955267,1.46019263 M2.9493138,0.0485639366 L20.6908442,1.40781857 C17.5457594,10.24103 14.9650603,19.2659525 12.9667378,28.4287761 L0.551868441,15.5644769 C0.708710586,15.2499789 0.863454692,14.9186041 1.01584675,14.568098" id="path-8"></path>
        <linearGradient x1="93.4108125%" y1="90.4691053%" x2="100%" y2="15.9786392%" id="linearGradient-10">
            <stop stop-color="#791175" offset="0%"></stop>
            <stop stop-color="#EE3C6C" offset="100%"></stop>
        </linearGradient>
        <path d="M19.8177742,1.09459156 L28.2763386,1.78117647 L28.2131748,1.99173109 C25.6701325,11.1169699 27.4034748,15.7081864 27.4339757,21.9902453 L13.7206023,15.4860705 M8.89952773,0.217846326 L19.1066794,1.03588471 C16.9550289,5.68873968 14.9565122,10.4118511 13.1138136,15.196759 L0.0108924675,8.9768858 C2.8314525,5.89999856 5.7082263,3.75391547 8.89952773,0.217846326" id="path-11"></path>
        <linearGradient x1="97.2085741%" y1="60.0439544%" x2="100%" y2="43.4784394%" id="linearGradient-13">
            <stop stop-color="#EF3D6C" offset="0%"></stop>
            <stop stop-color="#F0505E" offset="100%"></stop>
        </linearGradient>
        <path d="M15.1694458,1.28861538 C16.2946303,1.78888356 18.3836236,4.33149329 14.772029,17.5992125 L8.01227937,14.472533 M0.552405119,11.0142568 C9.92649497,-1.17677084 13.8124212,0.355018589 14.5908434,0.934153846 C12.0480599,5.27707568 9.64691846,9.69746175 7.38986926,14.1876429" id="path-14"></path>
        <linearGradient x1="97.2663425%" y1="59.5652571%" x2="100%" y2="43.8481316%" id="linearGradient-16">
            <stop stop-color="#EF515E" offset="0%"></stop>
            <stop stop-color="#EE6251" offset="100%"></stop>
        </linearGradient>
        <path d="M13.6961561,9.27438938 C14.5838465,13.5589915 15.3075928,17.8843105 15.864254,22.2406496 L3.17881953,25.2408632 C1.65097832,24.1278484 0.514825076,22.4902024 0.174108509,20.1087763 L0.21958662,20.3566316 M23.8364395,0.928251232 C26.1837016,4.57721693 28.9581366,4.8486499 30.7179077,15.0870132 C30.9140483,16.4567881 30.8871382,17.6685383 30.685042,18.7405832 L16.3416448,22.1275095 C15.7704161,17.6917152 15.0274421,13.288161 14.1157957,8.92698731" id="path-17"></path>
        <linearGradient x1="100%" y1="38.7721208%" x2="72.1355932%" y2="4.82794662%" id="linearGradient-19">
            <stop stop-color="#700E76" offset="0%"></stop>
            <stop stop-color="#C52D6E" offset="100%"></stop>
        </linearGradient>
        <path d="M5.72563758,4.11353425 C8.71042216,9.98754339 11.3268493,16.021906 13.5635824,22.1836174 L0.987598031,24.8695893 C0.884250268,24.2549377 0.803135175,23.5892394 0.748584337,22.8647368 C0.194177207,17.557478 1.93528006,14.4054028 0.541356206,8.14706653 M10.8594518,0.131447368 L11.3510542,0.770921053 C16.3514578,7.73763158 20.2219096,8.73947368 24.1950843,14.2851316 C25.5170199,16.2267142 26.3459035,17.8846528 26.8645002,19.3521064 L14.0577306,22.0785598 C11.797862,15.844698 9.15144409,9.74077369 6.12935324,3.80063521" id="path-20"></path>
        <linearGradient x1="100%" y1="40.4202591%" x2="71.6528473%" y2="9.63765144%" id="linearGradient-22">
            <stop stop-color="#C62D6E" offset="0%"></stop>
            <stop stop-color="#F0505E" offset="100%"></stop>
        </linearGradient>
        <linearGradient x1="100%" y1="40.4096623%" x2="70.9451575%" y2="6.58404549%" id="linearGradient-23">
            <stop stop-color="#EF515E" offset="0%"></stop>
            <stop stop-color="#EE7444" offset="100%"></stop>
        </linearGradient>
    </defs>
    <g id="Design" stroke="none" stroke-width="1" fill="none" fill-rule="evenodd">
        <g id="Desktop---1440" transform="translate(-690.000000, -120.000000)">
            <g id="Header" transform="translate(170.000000, 120.000000)">
                <g id="header-illustration" transform="translate(520.000000, 0.000000)">
                    <path d="M361.759328,332.501776 C361.759328,337.744625 330.021245,342 290.879749,342 C251.741817,342 220.003734,337.744625 220.003734,332.501776 C220.003734,327.251823 251.741817,323 290.879749,323 C330.021245,323 361.759328,327.251823 361.759328,332.501776" id="Fill-6" fill="#8686FE"></path>
                    <path d="M290.89757,342.590805 C251.761606,342.590805 220.003734,338.278161 220.003734,333 L220.003734,337.441379 C220.003734,342.71954 251.761606,347 290.89757,347 C330.033534,347 361.759328,342.71954 361.759328,337.441379 L361.759328,333 C361.759328,338.278161 330.033534,342.590805 290.89757,342.590805" id="Fill-7" fill="#636EC7"></path>
                    <path d="M310.847108,325.851126 C310.847108,325.851126 306.422208,329 290.810162,329 C275.201684,329 270.915954,325.851126 270.915954,325.851126 L272.172055,295 L309.587438,295 L310.847108,325.851126" id="Fill-8" fill="#636EC7"></path>
                    <path d="M117.528023,87 C114.036382,87 111.191342,89.8391437 111.191342,93.3235474 L111.191342,291.64419 C111.191342,295.128593 114.036382,298 117.528023,298 L464.202709,298 C467.69435,298 470.57172,295.128593 470.57172,291.64419 L470.57172,93.3235474 C470.57172,89.8391437 467.69435,87 464.202709,87 L117.528023,87" id="Fill-9" fill="#8686FE"></path>
                    <polygon id="Fill-10" fill="#D7DDFF" points="121.17413 288 460.588932 288 460.588932 97 121.17413 97"></polygon>
                    <path d="M453.60098,288 L445.767939,288 L445.767939,129.576292 C445.767939,125.259481 442.254353,121.721644 437.967133,121.721644 L248.627459,121.721644 L210.87342,115.976715 L210.010245,121.721644 L146.823,121.721644 C142.53578,121.721644 138.989959,125.259481 138.989959,129.576292 L138.989959,288 L131.156918,288 L131.156918,111.887105 C131.156918,107.537837 134.670504,104 138.989959,104 L445.767939,104 C450.087394,104 453.60098,107.537837 453.60098,111.887105 L453.60098,288 M165.74479,110.394073 C164.133053,110.394073 162.811429,111.692362 162.811429,113.34768 C162.811429,114.970542 164.133053,116.26883 165.74479,116.26883 C167.356527,116.26883 168.678151,114.970542 168.678151,113.34768 C168.678151,111.692362 167.356527,110.394073 165.74479,110.394073 M154.527102,110.394073 C152.915365,110.394073 151.593741,111.692362 151.593741,113.34768 C151.593741,114.970542 152.915365,116.26883 154.527102,116.26883 C156.138838,116.26883 157.460463,114.970542 157.460463,113.34768 C157.460463,111.692362 156.138838,110.394073 154.527102,110.394073 M143.277179,110.394073 C141.665442,110.394073 140.376053,111.692362 140.376053,113.34768 C140.376053,114.970542 141.665442,116.26883 143.277179,116.26883 C144.92115,116.26883 146.21054,114.970542 146.21054,113.34768 C146.21054,111.692362 144.92115,110.394073 143.277179,110.394073" id="Fill-11" fill="#B7C7F0"></path>
                    <path d="M436.798071,123 L144.997298,123 C140.700409,123 137.146591,126.531915 137.146591,130.841499 L137.146591,289 L444.616471,289 L444.616471,130.841499 C444.616471,126.531915 441.09496,123 436.798071,123" id="Fill-12" fill="#E3F0E3"></path>
                    <path d="M140.626779,117 C139.247941,117 138.14487,115.895028 138.14487,114.513812 C138.14487,113.104972 139.247941,112 140.626779,112 C142.033194,112 143.136264,113.104972 143.136264,114.513812 C143.136264,115.895028 142.033194,117 140.626779,117" id="Fill-13" fill="#808BA8"></path>
                    <path d="M151.621634,117 C150.250372,117 149.125937,115.895028 149.125937,114.513812 C149.125937,113.104972 150.250372,112 151.621634,112 C152.992896,112 154.117331,113.104972 154.117331,114.513812 C154.117331,115.895028 152.992896,117 151.621634,117" id="Fill-14" fill="#808BA8"></path>
                    <path d="M164.599259,117 C163.227997,117 162.103562,115.895028 162.103562,114.513812 C162.103562,113.104972 163.227997,112 164.599259,112 C165.970521,112 167.094956,113.104972 167.094956,114.513812 C167.094956,115.895028 165.970521,117 164.599259,117" id="Fill-15" fill="#808BA8"></path>
                    <path d="M195.083335,137 L153.082481,137 C151.424552,137 150.124216,135.873626 150.124216,134.5 C150.124216,133.126374 151.424552,132 153.082481,132 L195.083335,132 C196.708755,132 198.0416,133.126374 198.0416,134.5 C198.0416,135.873626 196.708755,137 195.083335,137" id="Fill-16" fill="#C1D8D6"></path>
                    <path d="M316.836781,134.5 C316.836781,135.878362 315.527881,137 313.915001,137 L291.810329,137 C290.193873,137 288.884973,135.878362 288.884973,134.5 C288.884973,133.118582 290.193873,132 291.810329,132 L313.915001,132 C315.527881,132 316.836781,133.118582 316.836781,134.5" id="Fill-17" fill="#E0E0CF"></path>
                    <path d="M353.814821,137 L340.361752,137 L340.704298,135.076923 L328.816126,133.556777 C329.252423,132.647131 330.29088,132 331.520442,132 L353.814821,132 C355.43741,132 356.767934,133.126374 356.767934,134.5 C356.767934,135.873626 355.43741,137 353.814821,137" id="Fill-18" fill="#C1D8D6"></path>
                    <path d="M392.770377,137 L370.64723,137 C369.037103,137 367.749001,135.873626 367.749001,134.5 C367.749001,133.126374 369.037103,132 370.64723,132 L392.770377,132 C394.380504,132 395.700808,133.126374 395.700808,134.5 C395.700808,135.873626 394.380504,137 392.770377,137" id="Fill-19" fill="#C1D8D6"></path>
                    <path d="M432.704902,137 L410.607213,137 C408.998939,137 407.680154,135.873626 407.680154,134.5 C407.680154,133.126374 408.998939,132 410.607213,132 L432.704902,132 C434.313176,132 435.631961,133.126374 435.631961,134.5 C435.631961,135.873626 434.313176,137 432.704902,137" id="Fill-20" fill="#C1D8D6"></path>
                    <path d="M409.50974,45 L398.862616,45 C398.862616,45 398.862616,38.6948791 398.862616,37.4466572 C398.287096,37.2226174 397.967363,37.0945946 397.391843,36.8385491 C396.496589,37.7347084 392.052294,42.1834993 392.052294,42.1834993 L384.538559,34.6301565 C384.538559,34.6301565 388.95088,30.1813656 389.846134,29.2852063 C389.590347,28.7091038 389.494427,28.4210526 389.23864,27.8449502 C387.99168,27.8449502 381.724904,27.8449502 381.724904,27.8449502 L381.724904,17.1550498 C381.724904,17.1550498 387.99168,17.1550498 389.23864,17.1550498 C389.494427,16.5789474 389.590347,16.2588905 389.846134,15.6827881 C388.95088,14.8186344 384.538559,10.3698435 384.538559,10.3698435 L392.052294,2.81650071 C392.052294,2.81650071 396.496589,7.26529161 397.391843,8.16145092 C397.967363,7.90540541 398.287096,7.77738265 398.862616,7.52133713 C398.862616,6.27311522 398.862616,0 398.862616,0 L409.50974,0 C409.50974,0 409.50974,6.27311522 409.50974,7.52133713 C410.08526,7.77738265 410.404993,7.90540541 410.980514,8.16145092 C411.875767,7.26529161 416.288089,2.81650071 416.288089,2.81650071 L423.833798,10.3698435 C423.833798,10.3698435 419.421476,14.8186344 418.526223,15.6827881 C418.750036,16.2588905 418.877929,16.5789474 419.133716,17.1550498 C420.380677,17.1550498 426.647452,17.1550498 426.647452,17.1550498 L426.647452,27.8449502 C426.647452,27.8449502 420.380677,27.8449502 419.133716,27.8449502 C418.877929,28.4210526 418.750036,28.7091038 418.526223,29.2852063 C419.421476,30.1813656 423.833798,34.6301565 423.833798,34.6301565 L416.288089,42.1834993 C416.288089,42.1834993 411.875767,37.7347084 410.980514,36.8385491 C410.404993,37.0945946 410.08526,37.2226174 409.50974,37.4466572 C409.50974,38.6948791 409.50974,45 409.50974,45 M396.944216,34.0540541 L400.397337,35.4943101 L401.260617,35.8463727 C401.260617,35.8463727 401.260617,40.9032717 401.260617,42.5675676 C402.731391,42.5675676 405.640965,42.5675676 407.111739,42.5675676 C407.111739,40.9032717 407.111739,36.6465149 407.111739,36.6465149 L407.239632,35.814367 L410.692753,34.374111 L411.556034,34.0220484 C411.556034,34.0220484 415.137048,37.5746799 416.288089,38.7588905 C417.343209,37.7347084 419.421476,35.6543385 420.444623,34.6301565 C419.261609,33.4459459 416.256115,30.4374111 416.256115,30.4374111 L415.744542,29.7652916 L417.183342,26.2766714 L417.503076,25.4125178 C417.503076,25.4125178 422.586837,25.4125178 424.249451,25.4125178 C424.249451,23.9722617 424.249451,21.0277383 424.249451,19.5554765 C422.586837,19.5554765 418.334383,19.5554765 418.334383,19.5554765 L417.471102,19.4594595 L416.064275,15.9708393 L415.680595,15.1066856 C415.680595,15.1066856 419.261609,11.5540541 420.444623,10.3698435 C419.421476,9.34566145 417.343209,7.26529161 416.288089,6.24110953 C415.137048,7.39331437 412.131554,10.4018492 412.131554,10.4018492 L411.42814,10.9139403 L407.111739,9.15362731 C407.111739,9.15362731 407.111739,4.06472262 407.111739,2.40042674 C405.640965,2.40042674 402.731391,2.40042674 401.260617,2.40042674 C401.260617,4.06472262 401.260617,8.35348506 401.260617,8.35348506 L401.132724,9.185633 L397.679603,10.625889 L396.816322,10.9779516 C396.816322,10.9779516 393.235308,7.39331437 392.052294,6.24110953 C391.029147,7.26529161 388.95088,9.34566145 387.927733,10.3698435 C389.110747,11.5540541 392.116241,14.5305832 392.116241,14.5305832 L392.627815,15.2347084 L391.189014,18.6913229 L390.837307,19.5554765 C390.837307,19.5554765 385.785519,19.5554765 384.122905,19.5554765 C384.122905,21.0277383 384.122905,23.9722617 384.122905,25.4125178 C385.785519,25.4125178 390.037974,25.4125178 390.037974,25.4125178 L390.901254,25.5405405 L392.308081,28.997155 L392.691761,29.8613087 C392.691761,29.8613087 389.110747,33.4459459 387.927733,34.6301565 C388.95088,35.6543385 391.029147,37.7347084 392.052294,38.7588905 C393.235308,37.5746799 396.240802,34.5661451 396.240802,34.5661451 L396.944216,34.0540541" id="Fill-34" fill="#CDDEE8"></path>
                    <path d="M404.701188,32 C399.17812,32 394.702529,27.4920635 394.702529,22 C394.702529,16.4761905 399.17812,12 404.701188,12 C410.192516,12 414.668106,16.4761905 414.668106,22 C414.668106,27.4920635 410.192516,32 404.701188,32 M404.701188,14.3809524 C400.479532,14.3809524 397.083162,17.8095238 397.083162,22 C397.083162,26.1904762 400.479532,29.5873016 404.701188,29.5873016 C408.891103,29.5873016 412.287473,26.1904762 412.287473,22 C412.287473,17.8095238 408.891103,14.3809524 404.701188,14.3809524" id="Fill-35" fill="#CDDEE8"></path>
                    <path d="M525.992224,164 C521.15143,164 519.420284,160.427705 519.035585,158.046175 C516.695333,156.887593 515.66947,152.478545 514.323023,145.881063 L513.136868,140.28125 C512.239237,136.322761 510.508092,133.458489 508.809005,130.722948 C506.596986,127.086287 504.513201,123.674907 504.513201,118.364739 C504.513201,101.114739 516.054169,95 525.928108,95 C535.834106,95 547.43919,101.114739 547.43919,118.364739 C547.43919,123.674907 545.355404,127.086287 543.143385,130.722948 C541.444298,133.458489 539.713153,136.322761 538.815522,140.28125 L537.629367,145.881063 C536.282921,152.446362 535.257057,156.887593 532.916805,158.046175 C532.564165,160.427705 530.865078,164 525.992224,164 M521.73204,158.528918 C522.173731,159.784049 523.267274,161.457556 525.992224,161.457556 C528.724299,161.457556 529.807156,159.784049 530.234599,158.528918 L531.794767,158.528918 C532.122473,158.528918 532.421684,158.41449 532.642529,158.192786 C532.891871,157.960354 533.045038,157.631374 533.045038,157.273787 C533.045038,156.533582 532.500048,155.986474 531.794767,155.986474 C532.453742,155.986474 533.148337,154.016169 533.782378,151.545243 L534.680009,151.545243 C535.38529,151.545243 535.962339,150.965951 535.962339,150.257929 C535.962339,149.549907 535.38529,149.002799 534.680009,149.002799 L534.380798,149.002799 C534.655075,147.744092 534.907979,146.478234 535.128824,145.366138 L536.314979,139.734142 C537.308785,135.325093 539.264338,132.171175 540.963425,129.371269 C543.079269,125.927705 544.906589,122.966884 544.906589,118.364739 C544.906589,98.5401119 529.069816,97.542444 525.928108,97.542444 C522.754342,97.542444 507.07786,98.5401119 507.07786,118.364739 C507.07786,122.966884 508.873122,125.927705 510.988966,129.371269 C512.688053,132.171175 514.643606,135.325093 515.637411,139.734142 L516.823566,145.366138 C517.051536,146.478234 517.311564,147.744092 517.589402,149.002799 L516.695333,149.002799 C515.957994,149.002799 515.413004,149.549907 515.413004,150.257929 C515.413004,150.965951 515.957994,151.545243 516.695333,151.545243 L518.194947,151.545243 C518.828988,154.016169 519.516459,155.986474 520.157624,155.986474 C519.452343,155.986474 518.907352,156.533582 518.907352,157.273787 C518.907352,157.910292 519.391788,158.460976 520.036515,158.521766 C520.075697,158.525342 520.118442,158.528918 520.157624,158.528918 L521.73204,158.528918" id="Fill-36" fill="#CDDEE8"></path>
                    <path d="M532.227322,159.422 L520.723347,159.422 C520.681092,159.422 520.642358,159.418 520.603624,159.414 C519.966275,159.346 519.487383,158.73 519.487383,158.018 C519.487383,157.19 520.026137,156.578 520.723347,156.578 L532.227322,156.578 C532.924533,156.578 533.463287,157.19 533.463287,158.018 C533.463287,158.418 533.311872,158.786 533.065384,159.046 C532.847065,159.278 532.5548,159.422 532.227322,159.422" id="Fill-37" fill="#CDDEE8"></path>
                    <path d="M535.212221,152.422 L517.738448,152.422 C517.022055,152.422 516.492546,151.774 516.492546,150.982 C516.492546,150.19 517.022055,149.578 517.738448,149.578 L535.212221,149.578 C535.897467,149.578 536.458123,150.19 536.458123,150.982 C536.458123,151.774 535.897467,152.422 535.212221,152.422" id="Fill-38" fill="#CDDEE8"></path>
                    <polygon id="Fill-39" fill="#CDDEE8" points="524.057503 88 526.896608 88 526.896608 83 524.057503 83"></polygon>
                    <polygon id="Fill-40" fill="#CDDEE8" points="551.432305 116.44 556.4237 116.44 556.4237 113.56 551.432305 113.56"></polygon>
                    <polygon id="Fill-41" fill="#CDDEE8" points="494.530412 116.44 499.521806 116.44 499.521806 113.56 494.530412 113.56"></polygon>
                    <polyline id="Fill-42" fill="#CDDEE8" points="549.937556 139 546.440911 135.489362 547.93566 134 551.432305 137.484043 549.937556 139"></polyline>
                    <polyline id="Fill-43" fill="#CDDEE8" points="507.019518 98 503.514922 94.4893617 505.02827 93 508.506316 96.4840426 507.019518 98"></polyline>
                    <polyline id="Fill-44" fill="#CDDEE8" points="544.940824 98 543.446075 96.4840426 546.94272 93 548.437469 94.4893617 544.940824 98"></polyline>
                    <polyline id="Fill-45" fill="#CDDEE8" points="504.011392 139 502.516643 137.484043 506.013288 134 507.508037 135.489362 504.011392 139"></polyline>
                    <polygon id="Fill-46" fill="#B7C9F1" points="149.125937 346.746 557.421978 346.746 557.421978 343.254 149.125937 343.254"></polygon>
                    <polyline id="Fill-47" fill="#FFFFFF" points="319.6662 269 189.05709 249.24033 209.155771 116 339.797194 135.75967 319.6662 269"></polyline>
                    <path d="M310.429932,231.696632 C310.012213,234.471514 307.441631,236.364962 304.742521,235.940569 L215.254149,222.229388 C212.555039,221.83764 210.659235,219.225987 211.076954,216.451105 L223.447878,133.302589 C223.865598,130.560353 226.404047,128.634258 229.13529,129.058652 L318.591529,142.769832 C321.29064,143.194226 323.186443,145.80588 322.768724,148.548116 L310.429932,231.696632" id="Fill-48" fill="#6ABBDB"></path>
                    <path d="M246.863868,237.826087 L245.999108,244.008696 C245.947223,244.362733 245.912633,244.757764 245.767353,244.903106 L245.611696,245 L244.760772,244.899379 L242.550446,244.545342 L242.142279,244.440994 L241.965868,244.187578 L242.073099,243.21118 L242.982826,236.700621 L243.083138,236.223602 L243.484387,236 L244.331851,236.115528 L245.999108,236.387578 L246.763556,236.573913 L246.957262,236.823602 L246.863868,237.826087" id="Fill-49" fill="#6ABBDB"></path>
                    <path d="M258.096015,239.110561 C258.323811,239.321365 258.565844,239.655137 258.544488,240.059177 C258.530251,240.558079 258.238388,240.937525 257.882457,241.053467 L257.437543,241.155355 L257.579915,241.369672 L257.853982,241.80182 C258.028389,242.385043 257.715169,242.933132 257.309408,243.112315 L256.957036,243.207176 L257.081612,243.410953 C257.24534,243.649864 257.312967,244.176873 257.110087,244.538752 C256.960596,244.798743 256.608224,245.016573 256.26653,244.999006 C255.928396,244.995493 255.583143,244.893605 255.241449,244.847931 C253.251795,244.559832 251.190954,244.257681 249.119436,243.948502 C248.624692,243.874721 248.105032,243.902828 247.955541,243.600676 L248.005372,242.708275 L248.446726,239.83432 C248.546387,239.184342 248.610454,238.513285 248.738589,237.912494 C249.19774,235.467173 250.585871,234.244513 252.023833,233.074553 L252.561288,232.652946 L253.084507,232.196205 L253.162812,231.795679 L253.230439,231.384612 L253.383489,230.590585 C253.522302,230.228706 253.885352,229.989795 254.25552,230.000335 C254.82501,230.028442 255.177381,230.428969 255.319754,230.769768 C255.590261,231.458393 255.593821,232.554571 255.23789,233.499674 C255.091958,233.907227 254.853484,234.265593 254.639925,234.623959 L254.145181,235.403932 L253.977894,235.66041 L254.622129,235.895807 C255.415855,236.018776 256.191785,236.127691 256.992629,236.247147 C257.526526,236.324441 258.120931,236.324441 258.448387,236.549298 C258.772284,236.770642 258.968046,237.111441 258.932453,237.592776 C258.89686,238.147892 258.654827,238.551932 258.2811,238.748682 L257.907372,238.871651 L258.096015,239.110561" id="Fill-50" fill="#6ABBDB"></path>
                    <polyline id="Fill-51" fill="#88D6E9" points="307.835906 226 217.008898 212.111599 218.023542 205.493417 242.342269 185.96489 252.783283 197.179937 278.607611 174 308.85055 219.968652 307.835906 226"></polyline>
                    <path d="M244.970971,172 C244.470666,172 243.966813,171.964495 243.459412,171.886384 C238.030573,171.055565 234.26232,165.974791 235.092613,160.510563 C235.848393,155.539854 240.11695,152 244.988713,152 C245.474824,152 245.968033,152.035505 246.461241,152.106515 C251.922014,152.937334 255.658333,158.050062 254.82804,163.482336 C254.104195,168.438843 249.832089,172 244.970971,172" id="Fill-52" fill="#88D6E9"></path>
                    <path d="M213.520626,227.319805 C216.58496,225.98136 218.22022,229.257327 218.365971,229.56824 C218.593486,229.317993 221.053485,226.694186 223.613021,228.950205 C225.927269,230.982518 226.325419,237.39037 216.791145,240.984833 L216.744931,241 L216.705827,240.973459 C208.593519,234.531482 210.740685,228.540709 213.520626,227.319805" id="Fill-53" fill="#F2577E"></path>
                    <path d="M238.085875,238.432 C238.037485,238.432 237.993127,238.432 237.944737,238.424 L230.722475,237.344 C230.250669,237.272 229.924035,236.804 229.99662,236.336 C230.061141,235.88 230.428101,235.568 230.871679,235.568 C230.920069,235.568 230.964427,235.572 231.012818,235.58 L238.235079,236.66 C238.706885,236.732 239.03352,237.2 238.960934,237.668 C238.896414,238.124 238.529453,238.432 238.085875,238.432" id="Fill-54" fill="#D7DDFF"></path>
                    <path d="M238.085872,235.43 C238.037482,235.43 237.993124,235.43 237.944733,235.422 L230.758741,234.342 C230.250641,234.27 229.924005,233.838 229.99659,233.334 C230.061111,232.906 230.432105,232.57 230.88375,232.57 C230.924075,232.57 230.968433,232.57 231.012791,232.578 L238.235076,233.658 C238.706884,233.73 239.03352,234.198 238.960934,234.702 C238.896413,235.126 238.529452,235.43 238.085872,235.43" id="Fill-55" fill="#D7DDFF"></path>
                    <path d="M235.026518,242.434 C235.002323,242.434 234.974095,242.43 234.9499,242.43 L227.727639,241.314 C227.255833,241.242 226.929198,240.81 227.001784,240.306 C227.066304,239.894 227.409069,239.566 227.836517,239.566 C227.897005,239.566 227.957493,239.574 228.017981,239.586 L235.240242,240.666 C235.712048,240.738 236.038683,241.17 235.966098,241.674 C235.897545,242.118 235.502357,242.434 235.026518,242.434" id="Fill-56" fill="#D7DDFF"></path>
                    <path d="M269.064218,243.42 C269.007989,243.42 268.951761,243.412 268.895532,243.4 L261.702281,242.32 C261.196223,242.248 260.8709,241.816 260.943194,241.312 C261.007455,240.888 261.401056,240.58 261.822771,240.58 C261.86695,240.58 261.91113,240.584 261.955309,240.592 L269.148561,241.672 C269.654619,241.744 269.979942,242.176 269.907648,242.68 C269.843387,243.092 269.473884,243.42 269.064218,243.42" id="Fill-57" fill="#D7DDFF"></path>
                    <path d="M270.02635,240.432 C269.98217,240.432 269.937991,240.432 269.893811,240.424 L262.700559,239.344 C262.194501,239.272 261.869179,238.804 261.941473,238.336 C262.005734,237.88 262.399334,237.568 262.821049,237.568 C262.865229,237.568 262.909409,237.572 262.953588,237.58 L270.14684,238.66 C270.652898,238.732 270.978221,239.2 270.905927,239.668 C270.841665,240.124 270.448065,240.432 270.02635,240.432" id="Fill-58" fill="#D7DDFF"></path>
                    <path d="M269.028071,245.43 C268.983891,245.43 268.939712,245.43 268.895532,245.422 L261.702281,244.342 C261.196223,244.27 260.8709,243.802 260.943194,243.334 C261.007455,242.906 261.409088,242.57 261.83482,242.57 C261.874983,242.57 261.915146,242.57 261.955309,242.578 L269.148561,243.658 C269.654619,243.73 269.979942,244.198 269.907648,244.666 C269.843387,245.122 269.449786,245.43 269.028071,245.43" id="Fill-59" fill="#D7DDFF"></path>
                    <path d="M303.960177,249.432 C303.919852,249.432 303.875494,249.432 303.831136,249.424 L296.645144,248.344 C296.137043,248.272 295.810407,247.804 295.882993,247.336 C295.947514,246.88 296.314475,246.568 296.758055,246.568 C296.806446,246.568 296.850804,246.572 296.899194,246.58 L304.121479,247.66 C304.593287,247.732 304.919923,248.164 304.847337,248.668 C304.782816,249.096 304.411822,249.432 303.960177,249.432" id="Fill-60" fill="#D7DDFF"></path>
                    <path d="M306.967111,245.43 C306.918721,245.43 306.874363,245.43 306.825972,245.422 L299.63998,244.342 C299.13188,244.27 298.805244,243.802 298.87783,243.334 C298.94235,242.906 299.313344,242.57 299.764989,242.57 C299.805315,242.57 299.849673,242.57 299.894031,242.578 L307.116316,243.658 C307.588123,243.73 307.914759,244.198 307.842173,244.666 C307.777653,245.122 307.410691,245.43 306.967111,245.43" id="Fill-61" fill="#D7DDFF"></path>
                    <path d="M303.973198,252.428 C303.924858,252.428 303.880546,252.428 303.832206,252.42 L296.617449,251.34 C296.146133,251.268 295.783582,250.836 295.892348,250.332 C295.960829,249.888 296.355607,249.572 296.830951,249.572 C296.855121,249.572 296.883319,249.576 296.907489,249.576 L304.122246,250.692 C304.593562,250.764 304.919857,251.196 304.847347,251.7 C304.782894,252.124 304.416315,252.428 303.973198,252.428" id="Fill-62" fill="#D7DDFF"></path>
                    <path d="M293.360879,241.133981 L280.165624,239.014537 C279.60233,238.92082 279.157091,239.288479 279.072766,239.879616 L277.922566,248.014968 C277.818002,248.750285 278.155304,249.272937 278.873758,249.388281 L287.636864,250.801244 L289.714644,253.811 C289.906906,254.102964 290.11266,254.052501 290.159883,253.688447 L290.500558,251.266224 L291.900361,251.493308 C292.227544,251.547375 292.537862,251.305874 292.585084,250.952633 L293.870205,241.880112 C293.917427,241.534081 293.688062,241.195258 293.360879,241.133981" id="Fill-63" fill="#7D8AEF"></path>
                    <path d="M177.077744,221.025821 L189.080834,216 C189.080834,216 191.053648,217.600401 191.053648,218.888443 C191.053648,220.165956 180.383833,230 180.383833,230 L177.077744,221.025821" id="Fill-64" fill="#0C337D"></path>
                    <path d="M189.787361,213.910753 C188.935854,214.834822 188.810063,216.077321 189.509976,216.679839 C190.209889,217.276113 191.461346,217.016999 192.316078,216.089808 C193.167585,215.168861 193.299826,213.929484 192.599913,213.330088 C191.900001,212.721326 190.642093,212.977318 189.787361,213.910753" id="Fill-65" fill="#FFAD97"></path>
                    <polyline id="Fill-66" fill="#FFAD97" points="174.007986 341.24 174.007986 346 177.386162 346 177.386162 341 174.007986 341.24"></polyline>
                    <polyline id="Fill-90" fill="#FFAD97" points="148.445111 340.199288 148.445111 344 151.803321 344 151.803321 340 148.445111 340.199288"></polyline>
                    <path d="M153.667697,268.624589 C153.667697,268.624589 156.498122,291.837844 153.419172,305.313623 C150.347126,318.77867 148.127658,340.496604 148.127658,340.496604 C148.127658,340.496604 149.152824,341.433863 151.907311,340.750594 C151.907311,340.750594 167.094956,301.131731 167.094956,288.1532 C167.094956,275.185401 163.877937,271.679623 163.877937,271.679623 C163.877937,271.679623 155.735288,266.184854 153.667697,268.624589" id="Fill-103" fill="#666666"></path>
                    <path d="M157.112168,269.104496 C157.112168,269.104496 167.44119,292.795361 168.350203,308.556906 C169.25555,324.329239 173.269134,343 173.269134,343 L177.982805,343 C177.982805,343 182.876079,302.163105 180.343305,269.413757 C179.786169,262.20365 160.693238,265.102077 157.112168,269.104496" id="Fill-104" fill="#8C8C8C"></path>
                    <path d="M177.378856,198.258852 C177.378856,198.258852 177.467975,202.233255 177.467975,202.771418 C177.467975,203.305944 178.444856,205.124061 178.900735,205.553136 C179.366896,205.989485 178.811616,206.876726 178.208348,206.923997 C177.611936,206.974904 177.704483,207.807601 177.704483,208.589392 C177.704483,210.254787 177.79703,215.490963 172.717245,212.207444 C172.717245,212.207444 171.78835,215.712773 172.069418,216.840006 L164.10012,217 C164.10012,217 164.974172,212.701972 164.837065,210.745678 C164.699959,208.793021 171.085681,196.037113 177.378856,198.258852" id="Fill-105" fill="#FFAD97"></path>
                    <path d="M179.495516,195.123987 C175.667541,195.502905 166.734382,191.383477 164.522987,196.900381 C164.522987,196.900381 162.727597,196.956002 163.172795,199.827434 C163.610695,202.702343 162.80058,211.264494 166.927787,211.264494 C171.051345,211.264494 172.708067,209.682773 172.708067,209.682773 C172.708067,209.682773 169.723049,205.862308 171.6863,204.3814 C172.29936,203.936433 172.930666,204.31535 172.970807,205.333909 C173.007299,206.355944 172.864981,211.035058 173.499936,212.349103 C174.463316,214.347981 176.302496,214.055971 177.035978,213.861298 C179.316707,213.259896 179.254671,208.41392 178.73649,209.860065 C178.221957,211.299257 176.353584,211.264494 175.423047,210.371082 C174.492509,209.4881 173.686044,204.304922 173.682394,204.294493 C173.715237,201.812407 174.459667,198.350003 178.415363,198.86102 C178.415363,198.86102 179.444428,199.194746 180.772725,199.288606 C182.101021,199.385943 183.327141,194.752022 179.495516,195.123987" id="Fill-106" fill="#444199"></path>
                    <path d="M152.120774,267.87635 C152.120774,267.87635 153.420361,231.187296 156.676431,223.936848 C159.921849,216.668498 163.824161,215 166.267102,215 C168.699389,215 177.256782,215.737576 183.974867,226.539848 C190.692952,237.334959 193.721772,239.203963 200.443408,240.077597 C207.154392,240.944071 210.619959,241.187542 210.619959,241.187542 C210.619959,241.187542 211.518307,243.486203 210.619959,245.906599 C210.619959,245.906599 198.760336,246.558244 193.075529,244.972097 C187.383621,243.38953 181.865701,239.48324 181.865701,239.48324 L181.695263,268.997037 C181.695263,268.997037 177.395262,273 165.933328,273 C154.474944,273 152.120774,267.87635 152.120774,267.87635" id="Fill-107" fill="#0C4296"></path>
                    <path d="M214.014061,243.00524 C214.014061,244.105677 215.353902,245 217.007175,245 C218.663893,245 220.003734,244.105677 220.003734,243.00524 C220.003734,241.90131 218.663893,241 217.007175,241 C215.353902,241 214.014061,241.90131 214.014061,243.00524" id="Fill-108" fill="#FFAD97"></path>
                    <path d="M298.352491,352 C279.349657,352 263.928003,350.632911 263.928003,348.93891 C263.928003,347.733627 272.025984,346.683544 283.7159,346.194827 C285.899021,346.221244 288.114405,346.234452 290.351298,346.234452 C295.997301,346.234452 301.489159,346.151899 306.755177,346 C321.725152,346.330215 332.809242,347.528894 332.809242,348.93891 C332.809242,350.632911 317.387587,352 298.352491,352" id="Fill-109" fill="#BECEE1"></path>
                    <path d="M471.054728,352 C452.051895,352 436.63024,350.653659 436.63024,348.985366 C436.63024,347.346341 452.051895,346 471.054728,346 C490.089825,346 505.511479,347.346341 505.511479,348.985366 C505.511479,350.653659 490.089825,352 471.054728,352" id="Fill-111" fill="#BECEE1"></path>
                    <path d="M137.146591,348.985366 C137.146591,348.172358 142.70805,346.891057 147.745267,346.643902 C152.782484,346.396748 166.046958,346 171.603342,346 C172.291617,346 206.02783,347.573984 206.02783,348.985366 C206.02783,350.653659 190.606176,352 171.603342,352 C152.568246,352 137.146591,350.653659 137.146591,348.985366 Z" id="Fill-112" fill="#BECEE1"></path>
                    <polyline id="Fill-181" fill="#FFAD97" points="296.488812 340.200152 296.488812 344 300.481928 344 300.481928 340 296.488812 340.200152"></polyline>
                    <polyline id="Fill-197" fill="#FFAD97" points="274.526678 338.300227 274.526678 344 278.519793 344 278.519793 338 274.526678 338.300227"></polyline>
                    <path d="M303.859156,262.293599 L302.137142,341.641698 C302.137142,341.641698 298.053909,342.447878 295.343397,341.641698 C293.069501,329.548996 292.769109,302.962889 289.520686,285.440956 C286.261784,267.919024 283.893579,264.284079 283.893579,256.429174 C283.893579,248.570702 303.859156,262.293599 303.859156,262.293599" id="Fill-211" fill="#0C337D"></path>
                    <path d="M279.342343,339.723257 C279.342343,339.723257 276.416171,340.545262 272.912512,339.355902 L282.434015,261 L298.867762,261 L279.342343,339.723257" id="Fill-212" fill="#0C4296"></path>
                    <path d="M295.630304,219 C295.630304,219 302.555017,228.713338 307.256294,233.210053 C309.368209,235.380632 318.537268,226.358261 324.231773,219.983996 C324.231773,219.983996 327.068571,221.376783 327.817848,225.58047 C327.817848,225.58047 322.87959,230.858593 315.564556,239.052527 C309.246234,246.139465 303.77477,245.723438 297.261288,237.088153 C290.754776,228.470957 295.630304,219 295.630304,219" id="Fill-213" fill="#B0BFDE"></path>
                    <path d="M293.822123,209.431148 C294.28571,203.952403 291.625434,199 291.625434,199 C290.801675,199.386212 288.740496,199.693815 287.314074,200.083445 C285.876954,200.476493 286.290617,202.465657 286.397598,203.429478 C286.497448,204.386464 286.180069,206.604621 285.695086,206.867792 C285.224366,205.845868 284.50759,202.438314 283.138225,203.942149 C281.76886,205.456238 282.41075,205.900553 282.917129,207.882881 C283.427075,209.858374 280.898743,209.971162 280.898743,209.971162 C282.6996,214.598873 282.19322,215.996756 283.102564,216.950324 C285.174442,219.130885 290.634071,220.381803 289.935124,216.444489 C288.975855,214.236585 288.269777,212.664394 288.269777,212.664394 C292.081889,214.045188 293.533273,212.425147 293.822123,209.431148" id="Fill-214" fill="#FFAD97"></path>
                    <path d="M292.116724,199.671033 C292.116724,199.671033 294.841646,198.608721 294.874345,196.978197 C294.91431,195.354731 290.972257,196.134701 287.506157,195.481785 C284.047323,194.828869 278.92447,194.108898 277.489344,198.668719 C277.489344,198.668719 275.222209,200.521587 276.115984,203.196777 C277.009758,205.868437 279.49852,207.523666 281.187971,211 C281.187971,211 283.763931,210.883534 283.244379,208.843614 C282.72846,206.796635 282.074479,206.33783 283.469639,204.774362 C284.864799,203.221482 285.595078,206.740167 286.074664,207.79542 C286.568783,207.523666 286.892141,205.233167 286.79041,204.244971 C286.681414,203.249716 286.259959,201.195679 287.72415,200.789812 C289.177442,200.387475 291.277448,200.06984 292.116724,199.671033" id="Fill-215" fill="#143F58"></path>
                    <path d="M286.657682,205.318146 C286.657682,205.318146 287.689523,210.419719 289.843717,210.393519 C291.99429,210.367319 294.391058,208.552012 294.818276,210.262517 C295.234633,211.965537 293.275945,214.192562 291.205023,213.986703 C289.144961,213.762129 287.801758,212.919976 287.367299,211.568789 C286.921978,210.210117 285.890137,205 285.890137,205 L286.657682,205.318146" id="Fill-216" fill="#143F58"></path>
                    <path d="M283.177042,217.551086 C283.177042,217.551086 276.169464,220.383004 274.253468,224.538612 C272.330376,228.694221 279.022169,236.455378 281.399424,260.313752 C281.573283,262.070393 280.381107,264.966188 280.381107,264.966188 C280.381107,264.966188 291.078752,265.473662 303.859156,262.556574 C303.859156,262.556574 301.591894,240.529365 299.345921,231.632601 C297.107044,222.739386 295.982283,219.886176 290.173976,217.206856 C286.285214,216.58937 283.177042,217.551086 283.177042,217.551086" id="Fill-217" fill="#D2DBEA"></path>
                    <path d="M286.027959,271 C285.71504,270.686282 285.395864,270.353158 285.111108,269.955351 C283.784334,268.111852 283.499578,266.009616 284.466496,265.262514 C285.270696,264.64478 286.681958,265.155785 287.886694,266.391253 L286.027959,271" id="Fill-218" fill="#FFAD97"></path>
                    <path d="M275.183262,223.603342 C272.58373,227.333764 270.191058,240.63384 269.922141,246.277481 C269.670462,251.917567 280.134094,264.371274 282.206135,266 C282.206135,266 284.805667,264.623762 284.891858,262.159336 C284.891858,262.159336 277.413895,249.794533 276.810555,245.964538 C276.207215,242.141656 281.568319,232.931175 282.040647,229.097624 C282.402651,226.238464 278.575754,218.734945 275.183262,223.603342" id="Fill-219" fill="#B0BFDE"></path>
                    <path d="M328.829002,216.767281 C327.583135,218.27294 327.476149,220.049078 328.577067,220.734288 C329.667632,221.413488 331.57267,220.746309 332.804732,219.237644 C334.036794,217.731985 334.147231,215.952842 333.060117,215.273642 C331.959199,214.579416 330.057613,215.252605 328.829002,216.767281" id="Fill-220" fill="#FFAD97"></path>
                    <path d="M333.807521,219.238771 C333.807521,219.635934 333.486124,220 333.135509,220 L328.48986,220 C328.139245,220 327.817848,219.635934 327.817848,219.238771 L327.817848,206.761229 C327.817848,206.330969 328.139245,206 328.48986,206 L333.135509,206 C333.486124,206 333.807521,206.330969 333.807521,206.761229 L333.807521,219.238771" id="Fill-221" fill="#0C4296"></path>
                    <polygon id="Fill-222" fill="#B5C9FF" points="327.817848 218 332.809242 218 332.809242 207 327.817848 207"></polygon>
                    <polyline id="Fill-223" fill="#0B263C" points="331.80098 207.072 329.824388 207.072 329.752512 207 329.824388 206.928 331.80098 206.928 331.872856 207 331.80098 207.072"></polyline>
                    <polyline id="Fill-224" fill="#0C4296" points="331.74308 217.998 331.311824 218.426 330.313545 218.426 329.882288 217.998 330.313545 217.574 331.311824 217.574 331.74308 217.998"></polyline>
                    <path d="M329.22156,215.755021 C329.652816,216.255021 329.381284,217.211021 328.614606,217.903021 C327.831956,218.579021 326.849649,218.731021 326.418393,218.235021 C325.97915,217.743021 326.254675,216.779021 327.029339,216.099021 C327.807997,215.419021 328.78631,215.275021 329.22156,215.755021" id="Fill-225" fill="#FFAD97"></path>
                    <path d="M227.490825,369.872 C215.631393,369.872 206.02783,369.044 206.02783,368 C206.02783,366.956 215.631393,366.128 227.490825,366.128 C239.350258,366.128 248.95382,366.992 248.95382,368 C248.95382,369.044 239.350258,369.872 227.490825,369.872" id="Fill-226" fill="#DAD9E0"></path>
                    <path d="M254.943493,340.507225 C254.943493,355.137132 243.09663,367 228.487301,367 C213.877972,367 202.034715,355.137132 202.034715,340.507225 C202.034715,325.877317 213.877972,314 228.487301,314 C243.09663,314 254.943493,325.877317 254.943493,340.507225" id="Fill-227" fill="#4E89F1"></path>
                    <path d="M246.957262,340.507225 C246.957262,355.137132 235.114005,367 220.497464,367 C205.888135,367 194.048484,355.137132 194.048484,340.507225 C194.048484,325.877317 205.888135,314 220.497464,314 C235.114005,314 246.957262,325.877317 246.957262,340.507225" id="Fill-228" fill="#6EB1FF"></path>
                    <path d="M207.026109,343.318694 L207.026109,339.688647 C207.889868,339.651943 208.537688,339.483103 208.941247,339.163777 C209.355427,338.84812 209.666946,338.363625 209.889966,337.691938 C210.109446,337.034932 210.222726,335.919124 210.222726,334.333502 C210.222726,332.347804 210.304145,330.982407 210.488225,330.248323 C210.658145,329.52158 210.941345,328.934312 211.313044,328.504873 C211.702444,328.068093 212.265303,327.704721 213.008702,327.425769 C213.762721,327.132135 214.82826,327 216.233638,327 L217.008898,327 L217.008898,330.626376 C215.964599,330.626376 215.28138,330.677762 214.95924,330.791545 C214.64064,330.912669 214.399921,331.09252 214.251241,331.364131 C214.102561,331.624731 214.031761,332.105556 214.031761,332.810277 C214.031761,334.076573 213.971581,335.497026 213.858301,337.056955 C213.776881,338.069991 213.500762,338.983926 213.044102,339.784078 C212.707803,340.375016 212.120163,340.962283 211.281184,341.520187 C211.996263,341.945956 212.555583,342.474497 212.976842,343.124161 C213.394562,343.766485 213.670681,344.59233 213.805201,345.590685 C213.868921,346.020124 213.932641,347.422225 214.003441,349.804329 C214.035301,350.681559 214.088401,351.221111 214.162741,351.430325 C214.297261,351.738641 214.53444,351.980888 214.88136,352.149728 C215.22828,352.296545 215.929199,352.384635 217.008898,352.384635 L217.008898,356 L216.233638,356 C214.82826,356 213.776881,355.889887 213.083042,355.64764 C212.410443,355.412733 211.861744,355.082395 211.426324,354.60891 C210.997985,354.157448 210.693545,353.577522 210.505925,352.880142 C210.314765,352.175421 210.222726,350.971523 210.222726,349.250095 C210.222726,347.352487 210.123606,346.056828 209.918286,345.385141 C209.716506,344.720795 209.408526,344.214277 208.983727,343.887609 C208.566007,343.560942 207.911108,343.37008 207.026109,343.318694" id="Fill-229" fill="#FFFFFF"></path>
                    <path d="M235.976195,339.688647 L235.976195,343.318694 C235.115366,343.37008 234.481257,343.538919 234.052613,343.847235 C233.63814,344.162891 233.319314,344.640046 233.110306,345.315403 C232.880043,345.98342 232.76314,347.102898 232.76314,348.68852 C232.76314,350.681559 232.681663,352.039615 232.50808,352.751677 C232.348667,353.489432 232.068809,354.069358 231.682675,354.498798 C231.296542,354.946589 230.722656,355.29895 229.989356,355.585242 C229.241887,355.867865 228.164965,356 226.769216,356 L225.993407,356 L225.993407,352.384635 C227.031362,352.384635 227.715066,352.329579 228.026807,352.208455 C228.352718,352.087331 228.593608,351.914821 228.738851,351.639539 C228.891179,351.378939 228.972656,350.909125 228.972656,350.197064 C228.972656,348.927098 229.029337,347.502974 229.142697,345.946716 C229.210005,344.94102 229.479235,344.034426 229.936219,343.241615 C230.29047,342.643336 230.878526,342.06341 231.714558,341.509176 C230.995429,341.079737 230.442797,340.547526 230.031866,339.905202 C229.610308,339.244526 229.326907,338.422352 229.192292,337.412986 C229.135612,336.994558 229.061219,335.588786 228.983284,333.206683 C228.951401,332.318441 228.908891,331.771548 228.813244,331.569675 C228.685713,331.254018 228.451908,331.0081 228.108284,330.861283 C227.754034,330.703455 227.05616,330.626376 225.993407,330.626376 L225.993407,327 L226.769216,327 C228.175592,327 229.21709,327.128465 229.897251,327.367042 C230.570328,327.598279 231.130044,327.946969 231.572858,328.413112 C232.005044,328.871915 232.302614,329.451842 232.490367,330.149222 C232.69229,330.846602 232.780853,332.04683 232.780853,333.779268 C232.780853,335.673206 232.883586,336.968865 233.078424,337.6222 C233.273262,338.293887 233.592087,338.793064 234.010103,339.127073 C234.428119,339.45374 235.090568,339.648272 235.976195,339.688647" id="Fill-230" fill="#FFFFFF"></path>
                    <path d="M386.716299,354.098 C376.249284,354.098 367.749001,353.594 367.749001,352.982 C367.749001,352.37 376.249284,351.902 386.716299,351.902 C397.216648,351.902 405.683596,352.406 405.683596,353.018 C405.683596,353.63 397.216648,354.098 386.716299,354.098" id="Fill-231" fill="#C0CCD3"></path>
                    <path d="M415.666385,327.001822 C415.666385,341.365496 404.038549,353 389.707497,353 C375.369168,353 363.755886,341.365496 363.755886,327.001822 C363.755886,312.638147 375.369168,301 389.707497,301 C404.038549,301 415.666385,312.638147 415.666385,327.001822" id="Fill-232" fill="#C78A30"></path>
                    <path d="M409.676712,327.001822 C409.676712,341.365496 398.046868,353 383.714187,353 C369.377867,353 357.766213,341.365496 357.766213,327.001822 C357.766213,312.638147 369.377867,301 383.714187,301 C398.046868,301 409.676712,312.638147 409.676712,327.001822" id="Fill-233" fill="#EFA330"></path>
                    <polyline id="Fill-234" fill="#F2FBFD" points="376.73351 332.972281 376.73351 336 363.755886 329.841507 363.755886 327.15494 376.73351 321 376.73351 324.031272 367.477914 328.501777 376.73351 332.972281"></polyline>
                    <polyline id="Fill-235" fill="#F2FBFD" points="377.731789 337 385.221717 319 387.714577 319 380.228432 337 377.731789 337"></polyline>
                    <polyline id="Fill-236" fill="#F2FBFD" points="388.712856 324.036941 388.712856 321 401.690481 327.159129 401.690481 329.844423 388.712856 336 388.712856 332.973715 397.976064 328.505328 388.712856 324.036941"></polyline>
                    <g id="Group-239" transform="translate(468.575163, 337.000000)">
                        <mask id="mask-2" fill="white">
                            <use xlink:href="#path-1"></use>
                        </mask>
                        <g id="Clip-238"></g>
                        <polyline id="Fill-237" fill="url(#linearGradient-3)" mask="url(#mask-2)" points="1.29332568 13.8862222 52.3566743 7.26577778 51.5924364 -0.532740741 0.52908778 6.0877037"></polyline>
                    </g>
                    <g id="Group-242" transform="translate(481.552787, 317.000000)">
                        <mask id="mask-5" fill="white">
                            <use xlink:href="#path-4"></use>
                        </mask>
                        <g id="Clip-241"></g>
                        <polyline id="Fill-240" fill="url(#linearGradient-6)" mask="url(#mask-5)" points="-12.378957 25.7764082 38.1737582 20.2066939 35.6470146 -1.72318367 -14.9057005 3.84653061"></polyline>
                    </g>
                    <polyline id="Fill-243" fill="url(#linearGradient-7)" points="467.068669 319 518.489104 313.285714 517.99904 309 466.578605 314.714286"></polyline>
                    <g id="Group-246" transform="translate(529.470171, 288.000000)">
                        <mask id="mask-9" fill="white">
                            <use xlink:href="#path-8"></use>
                        </mask>
                        <g id="Clip-245"></g>
                        <polyline id="Fill-244" fill="url(#linearGradient-10)" mask="url(#mask-9)" points="-20.3710471 55.934302 44.2997016 60.8961306 48.8615684 3.57237551 -15.8091803 -1.38945306"></polyline>
                    </g>
                    <g id="Group-249" transform="translate(541.449517, 265.000000)">
                        <mask id="mask-12" fill="white">
                            <use xlink:href="#path-11"></use>
                        </mask>
                        <g id="Clip-248"></g>
                        <polyline id="Fill-247" fill="url(#linearGradient-13)" mask="url(#mask-12)" points="-25.8866406 21.5696807 37.2912199 26.6774454 39.1054253 2.65606723 -24.0724352 -2.45169748"></polyline>
                    </g>
                    <g id="Group-252" transform="translate(554.427142, 246.000000)">
                        <mask id="mask-15" fill="white">
                            <use xlink:href="#path-14"></use>
                        </mask>
                        <g id="Clip-251"></g>
                        <polyline id="Fill-250" fill="url(#linearGradient-16)" mask="url(#mask-15)" points="-39.9271601 17.0363077 24.7756833 22.2313846 26.594148 -1.67261538 -38.1086954 -6.864"></polyline>
                    </g>
                    <g id="Group-255" transform="translate(504.513201, 322.000000)">
                        <mask id="mask-18" fill="white">
                            <use xlink:href="#path-17"></use>
                        </mask>
                        <g id="Clip-254"></g>
                        <polyline id="Fill-253" fill="url(#linearGradient-19)" mask="url(#mask-18)" points="13.7020974 57.6714211 73.2574332 8.68228947 50.2525056 -20.8017105 -9.3028302 28.1874211"></polyline>
                    </g>
                    <g id="Group-258" transform="translate(499.521806, 287.000000)">
                        <mask id="mask-21" fill="white">
                            <use xlink:href="#path-20"></use>
                        </mask>
                        <g id="Clip-257"></g>
                        <polyline id="Fill-256" fill="url(#linearGradient-22)" mask="url(#mask-21)" points="-4.66271084 61.2047368 57.7928072 12.7539474 33.0842831 -17.1094737 -29.3712349 31.3413158"></polyline>
                    </g>
                    <polyline id="Fill-259" fill="url(#linearGradient-23)" points="470.558907 319 531.466729 270.164227 506.522572 239 445.61475 287.835773"></polyline>
                    <polyline id="Fill-260" fill="#FF7E00" points="577.082199 351.819522 577.082199 350.713483 575.701051 350.713483 567.315509 309 563.731101 309 555.181136 350.713483 553.701335 350.713483 553.701335 351.819522 551.432305 351.819522 551.432305 354 579.384113 354 579.384113 351.819522 577.082199 351.819522"></polyline>
                    <polyline id="Fill-261" fill="#E7E2F9" points="557.421978 337 573.39444 337 572.25862 332 558.593292 332 557.421978 337"></polyline>
                    <polyline id="Fill-262" fill="#E7E2F9" points="567.404767 312.764 566.88865 309.236 563.927768 309.236 563.411651 312.764 567.404767 312.764"></polyline>
                    <path d="M579.384113,354 L568.953151,354 L567.484586,336.993967 L572.652877,336.993967 L575.57868,350.784314 L577.005717,350.784314 L577.005717,351.866516 L579.384113,351.866516 L579.384113,354 M571.561835,331.861237 L567.039109,331.861237 L565.408209,313 L567.556315,313 L571.561835,331.861237" id="Fill-263" fill="#FF6B00"></path>
                    <polygon id="Fill-266" fill="#A5AAA8" points="46.3032177 343 50.296333 343 50.296333 278 46.3032177 278"></polygon>
                    <polygon id="Fill-267" fill="#A5AAA8" points="120.175851 343 124.168966 343 124.168966 278 120.175851 278"></polygon>
                    <polyline id="Fill-268" fill="#828886" points="120.175851 321.458 120.175851 318.542 124.168966 318.542 124.168966 319.874 120.175851 321.458"></polyline>
                    <polyline id="Fill-269" fill="#828886" points="46.3032177 321.458 46.3032177 318.542 50.296333 318.542 50.296333 319.874 46.3032177 321.458"></polyline>
                    <polyline id="Fill-270" fill="#828886" points="120.175851 298.458 120.175851 295.542 124.168966 295.542 124.168966 296.874 120.175851 298.458"></polyline>
                    <polyline id="Fill-271" fill="#828886" points="46.3032177 298.458 46.3032177 295.542 50.296333 295.542 50.296333 296.874 46.3032177 298.458"></polyline>
                    <polygon id="Fill-272" fill="#F5F2F9" points="34.3238718 297 137.146591 297 137.146591 284 34.3238718 284"></polygon>
                    <path d="M104.40191,284 L91.5807132,297 L98.3763755,297 L111.197572,284 L104.40191,284 Z M120.025516,284 L107.211449,297 L114.007112,297 L126.824743,284 L120.025516,284 Z M135.659817,284 L122.835055,297 L129.634283,297 L137.146591,289.379709 L137.146591,284 L135.659817,284 Z M88.7747394,284 L75.9571078,297 L82.7527701,297 L95.5704016,284 L88.7747394,284 Z M41.8896615,284 L34.3238718,291.681993 L34.3238718,297 L35.8712576,297 L48.6924546,284 L41.8896615,284 Z M73.151134,284 L60.329937,297 L67.1327301,297 L79.9432308,284 L73.151134,284 Z M57.5239631,284 L44.7027662,297 L51.4984284,297 L64.31606,284 L57.5239631,284 L57.5239631,284 Z" id="Fill-273" fill="#FF7E00"></path>
                    <polygon id="Fill-274" fill="#F5F2F9" points="34.3238718 319 137.146591 319 137.146591 306 34.3238718 306"></polygon>
                    <path d="M104.40191,306 L91.5807132,319 L98.3763755,319 L111.197572,306 L104.40191,306 Z M120.025516,306 L107.211449,319 L114.007112,319 L126.824743,306 L120.025516,306 Z M135.659817,306 L122.835055,319 L129.634283,319 L137.146591,311.372922 L137.146591,306 L135.659817,306 Z M88.7747394,306 L75.9571078,319 L82.7527701,319 L95.5704016,306 L88.7747394,306 Z M41.8896615,306 L34.3238718,313.681116 L34.3238718,319 L35.8712576,319 L48.6924546,306 L41.8896615,306 Z M73.151134,306 L60.329937,319 L67.1327301,319 L79.9432308,306 L73.151134,306 Z M57.5239631,306 L44.7027662,319 L51.4984284,319 L64.31606,306 L57.5239631,306 L57.5239631,306 Z" id="Fill-275" fill="#FF7E00"></path>
                    <polygon id="Fill-276" fill="#A5AAA8" points="49.2980542 331 121.17413 331 121.17413 327 49.2980542 327"></polygon>
                    <polyline id="Fill-277" fill="#FF7E00" points="26.9445044 346.666442 26.9445044 345.499662 25.5378901 345.499662 16.8692202 301 13.1400566 301 4.30782695 345.499662 2.77036475 345.499662 2.77036475 346.666442 0.382391552 346.666442 0.382391552 349 29.3324776 349 29.3324776 346.666442 26.9445044 346.666442"></polyline>
                    <polyline id="Fill-278" fill="#E7E2F9" points="7.37034336 330 22.3445258 330 21.288654 325 8.45821131 325 7.37034336 330"></polyline>
                    <polyline id="Fill-279" fill="#E7E2F9" points="17.3531317 303.854 16.7332853 300.146 13.0142073 300.146 12.3617375 303.854 17.3531317 303.854"></polyline>
                    <polyline id="Fill-280" fill="#FF6B00" points="29.3324776 349 18.9131529 349 17.4360839 330.461175 22.6040109 330.461175 21.5261497 324.886563 16.9933261 324.886563 15.356574 304.338285 17.5086672 304.338285 16.8880804 301 25.5436323 345.499662 26.948118 345.499662 26.948118 346.666442 29.3324776 346.666442 29.3324776 349"></polyline>
                    <path d="M493.225054,226.132249 C493.225054,226.132249 491.195115,226.313853 486.396426,230.581544 C483.383796,233.254753 479.628769,237.050274 475.848636,239.698058 C466.043243,246.544524 454.638288,251.32797 454.638288,251.32797 C454.638288,251.32797 454.308333,253.420046 455.567182,255 C459.731066,254.342594 485.471119,244.670372 492.453964,238.895369 C499.443982,233.123998 498.730276,224.853758 493.225054,226.132249" id="Fill-322" fill="#4E89F1"></path>
                    <polyline id="Fill-323" fill="#FFAD97" points="460.588932 340.200927 460.588932 344 456.595817 344 456.595817 340 460.588932 340.200927"></polyline>
                    <polyline id="Fill-333" fill="#FFAD97" points="498.019021 338 499.521806 344.912433 496.126227 347 494.530412 339.720588 498.019021 338"></polyline>
                    <path d="M499.748992,344.999025 C499.748992,344.999025 500.63199,345.690354 500.631689,347.374647 C500.631385,349.074393 500.631071,350.824358 500.631071,350.824358 L487.170055,350.82677 C487.170055,350.82677 486.926573,348.78712 488.775198,348.786788 C490.623822,348.786457 493.866619,347.159529 494.469787,346.37522 C495.24764,345.378412 495.804601,344.999732 496.397743,344.999626 C496.987589,344.99952 499.748992,344.999025 499.748992,344.999025 L499.748992,344.999025 Z" id="Clip-331" fill="#261B16" transform="translate(493.895580, 347.912898) rotate(-6.000000) translate(-493.895580, -347.912898) "></path>
                    <path d="M483.57407,220.955213 C481.588381,214.597495 483.105037,208 483.105037,208 C484.097881,208.239777 486.367729,208.025431 488.000788,208.101723 C489.640693,208.178016 489.736554,210.641178 489.883769,211.807365 C490.030984,212.977185 490.975898,215.516639 491.564757,215.694655 C491.790715,214.350452 491.633229,210.118028 493.516211,211.531258 C495.382074,212.95902 494.810332,213.649287 494.800061,216.130613 C494.789791,218.615573 497.525249,218.056094 497.525249,218.056094 C497.076757,223.897928 497.128111,223.999652 497.128111,225.830675 C497.128111,228.744326 489.007327,236.460779 489.205896,228.508182 C489.264097,226.070451 490.366497,223.25489 490.366497,223.25489 C486.669006,225.932398 484.669623,224.413812 483.57407,220.955213" id="Fill-340" fill="#FFAD97"></path>
                    <path d="M480.467706,207.961542 C480.467706,207.961542 477.085907,207.481776 476.596484,205.638464 C476.110742,203.795152 480.765775,203.625611 484.493482,201.969877 C488.210149,200.303321 493.792509,198.120927 496.677526,202.925802 C496.677526,202.925802 499.757576,204.419209 499.507345,207.709033 C499.238715,210.991643 496.905678,213.545586 495.967312,217.946448 C495.967312,217.946448 493.027097,218.501966 493.038136,216.034598 C493.049176,213.570837 493.663714,212.885457 491.658186,211.467802 C489.634258,210.064577 489.803532,214.267039 489.560661,215.601726 C488.927723,215.424971 487.91208,212.903493 487.753845,211.741954 C487.595611,210.584023 487.492575,208.138298 485.729918,208.062545 C483.97462,207.986793 481.534868,208.199621 480.467706,207.961542" id="Fill-341" fill="#444199"></path>
                    <path d="M489.610332,214.533161 C489.610332,214.533161 489.801105,220.157836 487.321052,220.698059 C484.829778,221.23122 481.57541,219.949515 481.552966,221.852653 C481.526782,223.759323 484.380899,225.591844 486.707585,224.818583 C489.023049,224.041792 490.339759,222.820111 490.485644,221.284183 C490.63153,219.744724 490.422053,214 490.422053,214 L489.610332,214.533161" id="Fill-342" fill="#444199"></path>
                    <path d="M465.789996,274 C465.789996,274 458.722636,297.057748 457.264993,307.616937 C455.803669,318.158235 455.597538,341.230295 455.597538,341.230295 C455.597538,341.230295 458.722636,342.962131 462.278402,341.230295 C462.278402,341.230295 464.674678,310.042938 473.759181,297.705397 C482.858407,285.378591 480.189742,279.284962 480.189742,279.284962 L465.789996,274" id="Fill-343" fill="#192152"></path>
                    <path d="M453.523524,252.966344 C453.862112,253.916774 453.059873,255.13306 451.717724,255.707971 C450.381676,256.286205 449.027326,255.977149 448.685688,255.033365 C448.350151,254.086257 449.15544,252.856678 450.485388,252.285091 C451.824486,251.720149 453.181886,252.019236 453.523524,252.966344" id="Fill-344" fill="#FFAD97"></path>
                    <path d="M489.355016,276.309225 C489.355016,276.309225 482.84197,295.095584 489.995471,314.915119 C497.141972,334.734654 499.521806,341.344804 499.521806,341.344804 C499.521806,341.344804 497.362457,343.665814 494.093685,342.810896 C491.104894,338.168876 472.916663,307.279068 469.539398,292.207054 C467.152565,281.482386 466.578605,276 466.578605,276 L489.355016,276.309225" id="Fill-345" fill="#0C337D"></path>
                    <path d="M479.458899,233.871424 C479.458899,233.871424 484.417849,225.888548 490.862039,225.077647 C497.302733,224.259537 499.68261,229.986304 498.001669,238.477345 C496.320728,246.964782 488.681358,265.521814 489.86955,275.793235 C489.86955,275.793235 477.529836,283.008457 464.582047,275.793235 C464.582047,275.793235 473.06713,244.860042 479.458899,233.871424" id="Fill-346" fill="#6EB1FF"></path>
                    <polygon id="Fill-347" fill="#52738A" points="346.785145 267 472.568278 267 472.568278 187 346.785145 187"></polygon>
                    <polygon id="Fill-348" fill="#A6A6A6" points="346.785145 197 472.568278 197 472.568278 187 346.785145 187"></polygon>
                    <polygon id="Fill-349" fill="#FFFFFF" points="350.778261 195 355.769655 195 355.769655 190 350.778261 190"></polygon>
                    <polygon id="Fill-350" fill="#FFFFFF" points="366.750722 195 441.621634 195 441.621634 190 366.750722 190"></polygon>
                    <polyline id="Fill-351" fill="#000000" points="352.844698 194.732 350.708381 193.004 352.844698 191.268 352.844698 194.732"></polyline>
                    <polygon id="Fill-352" fill="#FFFFFF" points="357.766213 195 362.757607 195 362.757607 190 357.766213 190"></polygon>
                    <polyline id="Fill-353" fill="#000000" points="358.694612 194.732 360.830929 193.004 358.694612 191.268 358.694612 194.732"></polyline>
                    <path d="M453.60098,192.5 C453.60098,193.869048 452.483608,195 451.107034,195 C449.723455,195 448.609586,193.869048 448.609586,192.5 C448.609586,191.120448 449.723455,190 451.107034,190 C452.483608,190 453.60098,191.120448 453.60098,192.5" id="Fill-354" fill="#FB392E"></path>
                    <path d="M459.590653,192.5 C459.590653,193.869048 458.478726,195 457.100218,195 C455.711186,195 454.599259,193.869048 454.599259,192.5 C454.599259,191.120448 455.711186,190 457.100218,190 C458.478726,190 459.590653,191.120448 459.590653,192.5" id="Fill-355" fill="#FECB15"></path>
                    <path d="M468.575163,192.5 C468.575163,193.869048 467.461294,195 466.081217,195 C464.697637,195 463.583768,193.869048 463.583768,192.5 C463.583768,191.120448 464.697637,190 466.081217,190 C467.461294,190 468.575163,191.120448 468.575163,192.5" id="Fill-356" fill="#26A659"></path>
                    <polygon id="Fill-357" fill="#E0E0E0" points="358.984113 261 360.541428 261 360.541428 201 358.984113 201"></polygon>
                    <polygon id="Fill-358" fill="#E0E0E0" points="354.467899 205.308 357.07141 205.308 357.07141 202.692 354.467899 202.692"></polygon>
                    <polygon id="Fill-359" fill="#E0E0E0" points="354.467899 211.308 357.07141 211.308 357.07141 208.692 354.467899 208.692"></polygon>
                    <polygon id="Fill-360" fill="#E0E0E0" points="354.467899 215.308 357.07141 215.308 357.07141 212.692 354.467899 212.692"></polygon>
                    <polygon id="Fill-361" fill="#E0E0E0" points="354.467899 221.31 357.07141 221.31 357.07141 218.69 354.467899 218.69"></polygon>
                    <polygon id="Fill-362" fill="#E0E0E0" points="354.467899 227.302 357.07141 227.302 357.07141 224.698 354.467899 224.698"></polygon>
                    <polygon id="Fill-363" fill="#E0E0E0" points="354.467899 232.306 357.07141 232.306 357.07141 229.694 354.467899 229.694"></polygon>
                    <polygon id="Fill-364" fill="#E0E0E0" points="354.467899 237.312 357.07141 237.312 357.07141 234.688 354.467899 234.688"></polygon>
                    <polygon id="Fill-365" fill="#E0E0E0" points="354.467899 242.304 357.07141 242.304 357.07141 239.696 354.467899 239.696"></polygon>
                    <polygon id="Fill-366" fill="#E0E0E0" points="354.467899 247.306 357.07141 247.306 357.07141 244.694 354.467899 244.694"></polygon>
                    <polygon id="Fill-367" fill="#E0E0E0" points="354.467899 252.312 357.07141 252.312 357.07141 249.688 354.467899 249.688"></polygon>
                    <polygon id="Fill-368" fill="#E0E0E0" points="354.467899 257.3 357.07141 257.3 357.07141 254.7 354.467899 254.7"></polygon>
                    <path d="M367.383631,202.021525 L365.482908,203.829596 L365.482908,204.285202 L367.315748,205.992825 L367.822873,206 L367.942667,205.756054 L367.838846,205.530045 C367.838846,205.530045 366.616953,204.389238 366.253579,204.055605 C366.616953,203.707623 367.918708,202.466368 367.918708,202.466368 L368.018536,202.243946 L367.890756,202 L367.383631,202.021525" id="Fill-369" fill="#FFFFFF"></path>
                    <path d="M374.579225,202 L374.467417,202.243946 L374.563252,202.466368 C374.563252,202.466368 375.861015,203.707623 376.220395,204.055605 C375.861015,204.389238 374.643114,205.530045 374.643114,205.530045 L374.543287,205.756054 L374.655094,206 L375.170206,205.992825 L377.003046,204.285202 L377.003046,203.829596 L375.102323,202.021525 L374.579225,202" id="Fill-370" fill="#FFFFFF"></path>
                    <polyline id="Fill-371" fill="#FFFFFF" points="372.226938 202 368.74728 205.503395 368.74728 206 369.260737 205.988361 372.740395 202.508244 372.736445 202 372.226938 202"></polyline>
                    <path d="M367.383631,257.014376 L365.482908,258.832884 L365.482908,259.289308 L367.315748,260.989218 L367.822873,261 L367.942667,260.769991 L367.838846,260.525606 C367.838846,260.525606 366.616953,259.397125 366.253579,259.055705 C366.616953,258.714286 367.918708,257.467206 367.918708,257.467206 L368.018536,257.237197 L367.890756,257 L367.383631,257.014376" id="Fill-372" fill="#FFFFFF"></path>
                    <path d="M374.579225,257 L374.467417,257.237197 L374.563252,257.467206 C374.563252,257.467206 375.861015,258.714286 376.220395,259.055705 C375.861015,259.397125 374.643114,260.525606 374.643114,260.525606 L374.543287,260.769991 L374.655094,261 L375.170206,260.989218 L377.003046,259.289308 L377.003046,258.832884 L375.102323,257.014376 L374.579225,257" id="Fill-373" fill="#FFFFFF"></path>
                    <polyline id="Fill-374" fill="#FFFFFF" points="372.226938 257.003887 368.74728 260.490768 368.74728 261 369.260737 260.988338 372.740395 257.509232 372.736445 257 372.226938 257.003887"></polyline>
                    <polygon id="Fill-375" fill="#E29616" points="361.759328 210.176 372.740395 210.176 372.740395 207.824 361.759328 207.824"></polygon>
                    <polygon id="Fill-376" fill="#F19B0F" points="361.759328 239.182 374.736953 239.182 374.736953 236.818 361.759328 236.818"></polygon>
                    <polygon id="Fill-377" fill="#F19B0F" points="361.759328 257.184 370.743837 257.184 370.743837 254.816 361.759328 254.816"></polygon>
                    <polygon id="Fill-378" fill="#17BB99" points="366.750722 215.176 382.723183 215.176 382.723183 212.824 366.750722 212.824"></polygon>
                    <polygon id="Fill-379" fill="#FBDD82" points="366.750722 243.178 381.724904 243.178 381.724904 240.822 366.750722 240.822"></polygon>
                    <polygon id="Fill-380" fill="#89C0C8" points="365.752443 247.174 380.726626 247.174 380.726626 244.826 365.752443 244.826"></polygon>
                    <polygon id="Fill-381" fill="#17BB99" points="363.755886 253.174 372.740395 253.174 372.740395 250.826 363.755886 250.826"></polygon>
                    <polygon id="Fill-382" fill="#FBDD82" points="376.73351 253.174 410.674991 253.174 410.674991 250.826 376.73351 250.826"></polygon>
                    <polygon id="Fill-383" fill="#FBDD82" points="382.723183 247.174 407.680154 247.174 407.680154 244.826 382.723183 244.826"></polygon>
                    <polygon id="Fill-384" fill="#E29616" points="410.674991 247.174 419.6595 247.174 419.6595 244.826 410.674991 244.826"></polygon>
                    <polygon id="Fill-385" fill="#89C0C8" points="421.656058 243.178 437.628519 243.178 437.628519 240.822 421.656058 240.822"></polygon>
                    <polygon id="Fill-386" fill="#17BB99" points="382.723183 243.178 420.657779 243.178 420.657779 240.822 382.723183 240.822"></polygon>
                    <polygon id="Fill-387" fill="#FBDD82" points="383.721462 215.176 393.70425 215.176 393.70425 212.824 383.721462 212.824"></polygon>
                    <polygon id="Fill-388" fill="#FBDD82" points="363.755886 225.174 374.736953 225.174 374.736953 222.826 363.755886 222.826"></polygon>
                    <polyline id="Fill-389" fill="#17BB99" points="396.699087 225.176 378.730068 225.184 378.730068 222.836 396.699087 222.816 396.699087 225.176"></polyline>
                    <polygon id="Fill-390" fill="#89C0C8" points="395.700808 215.176 413.669827 215.176 413.669827 212.824 395.700808 212.824"></polygon>
                    <polygon id="Fill-391" fill="#89C0C8" points="365.752443 219.182 384.719741 219.182 384.719741 216.818 365.752443 216.818"></polygon>
                    <polygon id="Fill-392" fill="#E29616" points="386.716299 219.182 405.683596 219.182 405.683596 216.818 386.716299 216.818"></polygon>
                    <polygon id="Fill-393" fill="#17BB99" points="407.680154 219.182 421.656058 219.182 421.656058 216.818 407.680154 216.818"></polygon>
                    <polygon id="Fill-394" fill="#89C0C8" points="363.755886 229.17 387.714577 229.17 387.714577 226.83 363.755886 226.83"></polygon>
                    <polygon id="Fill-395" fill="#FBDD82" points="388.712856 229.17 401.690481 229.17 401.690481 226.83 388.712856 226.83"></polygon>
                    <polygon id="Fill-396" fill="#17BB99" points="363.755886 233.178 387.714577 233.178 387.714577 230.822 363.755886 230.822"></polygon>
                    <polygon id="Fill-397" fill="#89C0C8" points="391.707693 233.178 411.673269 233.178 411.673269 230.822 391.707693 230.822"></polygon>
                    <polygon id="Fill-398" fill="#17BB99" points="404.685318 229.17 428.644009 229.17 428.644009 226.83 404.685318 226.83"></polygon>
                    <polygon id="Fill-399" fill="#17BB99" points="375.735231 210.176 380.726626 210.176 380.726626 207.824 375.735231 207.824"></polygon>
                    <path d="M454.520682,261.968334 C454.862641,262.921894 454.056595,264.144576 452.722344,264.712725 C451.391147,265.280874 450.020258,264.981848 449.687459,264.031611 C449.342447,263.088019 450.151546,261.858692 451.485797,261.28722 C452.826153,260.715749 454.187883,261.024742 454.520682,261.968334" id="Fill-400" fill="#FFAD97"></path>
                    <path d="M493.618742,229.263763 C493.618742,229.263763 491.493141,229.668197 486.881122,234.560775 C483.980301,237.642347 480.418579,241.965854 476.710387,245.079638 C467.093381,253.175475 455.600844,259.281355 455.600844,259.281355 C455.600844,259.281355 455.465091,261.47532 456.933364,263 C461.245298,261.890491 487.295525,249.288614 494.065297,242.58861 C500.824352,235.899344 499.263196,227.388335 493.618742,229.263763" id="Fill-401" fill="#4E89F1"></path>
                    <path d="M159.147796,343 C159.147796,343 160,343.712202 160,345.44695 C160,347.197613 160,349 160,349 L147.010253,349 C147.010253,349 146.774944,346.899204 148.558847,346.899204 C150.342751,346.899204 153.471738,345.224138 154.053653,344.416446 C154.804101,343.38992 155.341498,343 155.913874,343 C156.48307,343 159.147796,343 159.147796,343 L159.147796,343 Z" id="Clip-331" fill="#261B16" transform="translate(153.500000, 346.000000) scale(-1, 1) translate(-153.500000, -346.000000) "></path>
                    <path d="M184.147796,345 C184.147796,345 185,345.712202 185,347.44695 C185,349.197613 185,351 185,351 L172.010253,351 C172.010253,351 171.774944,348.899204 173.558847,348.899204 C175.342751,348.899204 178.471738,347.224138 179.053653,346.416446 C179.804101,345.38992 180.341498,345 180.913874,345 C181.48307,345 184.147796,345 184.147796,345 L184.147796,345 Z" id="Clip-331" fill="#261B16" transform="translate(178.500000, 348.000000) scale(-1, 1) translate(-178.500000, -348.000000) "></path>
                    <path d="M285.147796,343 C285.147796,343 286,343.712202 286,345.44695 C286,347.197613 286,349 286,349 L273.010253,349 C273.010253,349 272.774944,346.899204 274.558847,346.899204 C276.342751,346.899204 279.471738,345.224138 280.053653,344.416446 C280.804101,343.38992 281.341498,343 281.913874,343 C282.48307,343 285.147796,343 285.147796,343 L285.147796,343 Z" id="Clip-331" fill="#261B16" transform="translate(279.500000, 346.000000) scale(-1, 1) translate(-279.500000, -346.000000) "></path>
                    <path d="M307.147796,343 C307.147796,343 308,343.712202 308,345.44695 C308,347.197613 308,349 308,349 L295.010253,349 C295.010253,349 294.774944,346.899204 296.558847,346.899204 C298.342751,346.899204 301.471738,345.224138 302.053653,344.416446 C302.804101,343.38992 303.341498,343 303.913874,343 C304.48307,343 307.147796,343 307.147796,343 L307.147796,343 Z" id="Clip-331" fill="#261B16" transform="translate(301.500000, 346.000000) scale(-1, 1) translate(-301.500000, -346.000000) "></path>
                    <path d="M460.147796,343 C460.147796,343 461,343.712202 461,345.44695 C461,347.197613 461,349 461,349 L448.010253,349 C448.010253,349 447.774944,346.899204 449.558847,346.899204 C451.342751,346.899204 454.471738,345.224138 455.053653,344.416446 C455.804101,343.38992 456.341498,343 456.913874,343 C457.48307,343 460.147796,343 460.147796,343 L460.147796,343 Z" id="Clip-331" fill="#261B16"></path>
                </g>
            </g>
        </g>
    </g>
</svg>